<?xml version="1.0" encoding="UTF-8" standalone="no"?>
<svg width="58px" height="40px" viewBox="0 0 58 40" version="1.1" xmlns="http://www.w3.org/2000/svg" xmlns:xlink="http://www.w3.org/1999/xlink">
    <!-- Generator: Sketch 49 (51002) - http://www.bohemiancoding.com/sketch -->
    <title>chest</title>
    <desc>Created with Sketch.</desc>
    <defs>
        <radialGradient cx="50%" cy="50%" fx="50%" fy="50%" r="50%" id="radialGradient-1">
            <stop stop-color="#FFBF3A" offset="0%"></stop>
            <stop stop-color="#FFFFFF" stop-opacity="0" offset="100%"></stop>
        </radialGradient>
        <linearGradient x1="50%" y1="-2.48949813e-15%" x2="50%" y2="100%" id="linearGradient-2">
            <stop stop-color="#FFE272" offset="0%"></stop>
            <stop stop-color="#FFC13E" offset="100%"></stop>
        </linearGradient>
        <linearGradient x1="50%" y1="100%" x2="50%" y2="3.061617e-15%" id="linearGradient-3">
            <stop stop-color="#FFE065" offset="0%"></stop>
            <stop stop-color="#FFBD35" offset="100%"></stop>
        </linearGradient>
        <linearGradient x1="50%" y1="0%" x2="50%" y2="100%" id="linearGradient-4">
            <stop stop-color="#FFE272" offset="0%"></stop>
            <stop stop-color="#FFC13E" offset="100%"></stop>
        </linearGradient>
        <circle id="path-5" cx="28" cy="21" r="9"></circle>
        <filter x="-38.9%" y="-27.8%" width="177.8%" height="177.8%" filterUnits="objectBoundingBox" id="filter-6">
            <feOffset dx="0" dy="2" in="SourceAlpha" result="shadowOffsetOuter1"></feOffset>
            <feGaussianBlur stdDeviation="2" in="shadowOffsetOuter1" result="shadowBlurOuter1"></feGaussianBlur>
            <feComposite in="shadowBlurOuter1" in2="SourceAlpha" operator="out" result="shadowBlurOuter1"></feComposite>
            <feColorMatrix values="0 0 0 0 1   0 0 0 0 0.760784314   0 0 0 0 0.247058824  0 0 0 0.2 0" type="matrix" in="shadowBlurOuter1"></feColorMatrix>
        </filter>
        <linearGradient x1="50%" y1="0%" x2="50%" y2="100%" id="linearGradient-7">
            <stop stop-color="#FFC240" offset="0%"></stop>
            <stop stop-color="#FCB722" offset="100%"></stop>
        </linearGradient>
        <path d="M28.658539,24.3333333 C28.658539,24.7015232 28.3608055,25 27.9935326,25 C27.6262597,25 27.3285262,24.7015232 27.3285262,24.3333333 L27.3285262,20.7142857 L25.8300128,20.7142857 L25.8300128,22.9047619 C25.8300128,23.2729517 25.5322793,23.5714286 25.1650064,23.5714286 C24.7977335,23.5714286 24.5,23.2729517 24.5,22.9047619 L24.5,20.047619 C24.5,19.6794292 24.7977335,19.3809524 25.1650064,19.3809524 L27.3285262,19.3809524 L27.3285262,18.3333333 L25.6185098,18.3333333 C25.2512369,18.3333333 24.9535034,18.0348565 24.9535034,17.6666667 C24.9535034,17.2984768 25.2512369,17 25.6185098,17 L30.3685554,17 C30.7358283,17 31.0335618,17.2984768 31.0335618,17.6666667 C31.0335618,18.0348565 30.7358283,18.3333333 30.3685554,18.3333333 L28.658539,18.3333333 L28.658539,19.3809524 L30.8349936,19.3809524 C31.2022665,19.3809524 31.5,19.6794292 31.5,20.047619 L31.5,22.9047619 C31.5,23.2729517 31.2022665,23.5714286 30.8349936,23.5714286 C30.4677207,23.5714286 30.1699872,23.2729517 30.1699872,22.9047619 L30.1699872,20.7142857 L28.658539,20.7142857 L28.658539,24.3333333 Z" id="path-8"></path>
        <filter x="-2.1%" y="-1.9%" width="104.3%" height="103.8%" filterUnits="objectBoundingBox" id="filter-9">
            <feGaussianBlur stdDeviation="0.1" in="SourceAlpha" result="shadowBlurInner1"></feGaussianBlur>
            <feOffset dx="0" dy="0.1" in="shadowBlurInner1" result="shadowOffsetInner1"></feOffset>
            <feComposite in="shadowOffsetInner1" in2="SourceAlpha" operator="arithmetic" k2="-1" k3="1" result="shadowInnerInner1"></feComposite>
            <feColorMatrix values="0 0 0 0 1   0 0 0 0 0.760784314   0 0 0 0 0.247058824  0 0 0 1 0" type="matrix" in="shadowInnerInner1"></feColorMatrix>
        </filter>
    </defs>
    <g id="FFFinal" stroke="none" stroke-width="1" fill="none" fill-rule="evenodd">
        <g id="Aa_网络推广会" transform="translate(-208.000000, -396.000000)">
            <g id="Group-6" transform="translate(10.000000, 298.000000)">
                <g id="Group-7" transform="translate(20.000000, 80.000000)">
                    <g id="chest" transform="translate(178.000000, 17.000000)">
                        <path d="M46.2349876,12.7814261 C46.2422782,12.7975504 46.2495456,12.8136803 46.2567899,12.8298157 C46.8946931,12.662075 47.590844,12.9323372 47.9365335,13.5310889 C48.350747,14.2485278 48.1049343,15.1659135 47.3874954,15.580127 L43.0573684,18.080127 C42.3399294,18.4943406 42.0941167,19.4117262 42.5083302,20.1291651 C42.9225438,20.8466041 43.8399294,21.0924168 44.5573684,20.6782032 L49.7535208,17.6782032 C50.4709597,17.2639897 51.3883453,17.5098024 51.8025589,18.2272413 C52.2167724,18.9446803 51.9709597,19.8620659 51.2535208,20.2762794 L47.9677807,22.1733024 L47.9668551,22.1887087 C48.6518097,21.9048641 49.4577091,22.1658424 49.8384573,22.8253175 C50.2526708,23.5427565 50.0068581,24.4601421 49.2894192,24.8743557 L34.5669873,33.3743557 C33.8495484,33.7885692 33.6037356,34.7059548 34.0179492,35.4233938 C34.4321628,36.1408327 35.3495484,36.3866454 36.0669873,35.9724319 L45.6286407,30.4520087 C43.9289757,33.6292447 41.3501278,36.3863109 38,38.3205081 C28.6333826,43.7283271 16.7107048,40.6985609 11.0332235,31.5894991 C10.9959044,31.5401609 10.9612219,31.4879706 10.9294919,31.4330127 C10.9114533,31.4017689 10.8946664,31.3701458 10.8791157,31.3382016 C10.8116384,31.2263578 10.7450919,31.1136225 10.6794919,31 C9.99456025,29.8136635 9.44498172,28.5863235 9.02596484,27.3358622 L14.308657,24.2858984 C15.026096,23.8716848 15.2719087,22.9542992 14.8576952,22.2368603 C14.4434816,21.5194213 13.526096,21.2736086 12.808657,21.6878222 L8.27000442,24.3082145 L8.26681293,24.2891067 C7.58944445,24.5504443 6.80390623,24.2872887 6.42949192,23.6387841 C6.01527836,22.9213451 6.26109109,22.0039595 6.97853003,21.589746 L13.0407079,18.089746 C13.7581468,17.6755324 14.0039595,16.7581468 13.589746,16.0407079 C13.1755324,15.3232689 12.2581468,15.0774562 11.5407079,15.4916698 L7.21058084,17.9916698 C6.4931419,18.4058833 5.57575629,18.1600706 5.16154273,17.4426316 C4.74732917,16.7251927 4.9931419,15.8078071 5.71058084,15.3935935 L9.60600657,13.1445684 C11.2452878,9.29793455 14.1000285,5.9311415 18,3.67949192 C27.2754527,-1.67569319 39.057452,1.24326136 44.7992342,10.1462571 L43.52147,10.8839746 C42.804031,11.2981882 42.5582183,12.2155738 42.9724319,12.9330127 C43.3866454,13.6504516 44.304031,13.8962644 45.02147,13.4820508 L46.2349876,12.781426 Z M0.916352203,25.089746 L1.78237761,24.589746 C2.49981654,24.1755324 3.41720215,24.4213451 3.83141571,25.1387841 C4.24562928,25.856223 3.99981654,26.7736086 3.28237761,27.1878222 L2.4163522,27.6878222 C1.69891327,28.1020357 0.78152766,27.856223 0.367314098,27.1387841 C-0.0468994646,26.4213451 0.198913268,25.5039595 0.916352203,25.089746 Z M54.7176224,18.2762794 L55.5836478,17.7762794 C56.3010867,17.3620659 57.2184723,17.6078786 57.6326859,18.3253175 C58.0468995,19.0427565 57.8010867,19.9601421 57.0836478,20.3743557 L56.2176224,20.8743557 C55.5001835,21.2885692 54.5827978,21.0427565 54.1685843,20.3253175 C53.7543707,19.6078786 54.0001835,18.690493 54.7176224,18.2762794 Z" id="Combined-Shape" fill="#FFF3D9"></path>
                        <path d="M26,41 L28,21 L30,41 L26,41 Z M27.7959324,20.5478175 L27.9280395,20.2803947 L26,1 L30,1 L28.1084887,19.9151135 L36.6498529,2.62492899 L40.0420453,4.74460605 L28.0781886,20.2181144 L28,21 L27.9397203,20.397203 L27.8060071,20.5701415 L28,21 L16.2679492,4.67949192 L19.7320508,2.67949192 L27.7959324,20.5478175 Z M27.6250455,20.830785 L9.67949192,12.7320508 L11.6794919,9.26794919 L27.6702828,20.7629817 L27.7414721,20.6562806 L27.6914859,20.7782237 L28,21 L27.6629317,20.8478828 L27.6163049,20.9616305 L28,21 L27.583504,21.0416496 L27.5099149,21.2211728 L28,21 L27.4337089,21.4070802 L20.117936,39.2541756 L16.5861456,37.3762894 L27.0625304,21.6739031 L11.6794919,32.7320508 L9.67949192,29.2679492 L27.3019748,21.3150151 L27.4772724,21.0522728 L8,23 L8,19 L27.5426609,20.9542661 L27.6250455,20.830785 Z M44.3205081,9.26794919 L46.3205081,12.7320508 L28,21 L44.3205081,9.26794919 Z M48,19 L48,23 L28,21 L48,19 Z M46.3205081,29.2679492 L44.3205081,32.7320508 L28,21 L46.3205081,29.2679492 Z M39.7320508,37.3205081 L36.2679492,39.3205081 L28,21 L39.7320508,37.3205081 Z" id="Combined-Shape" fill="url(#radialGradient-1)" opacity="0.3"></path>
                        <g id="Oval-7">
                            <use fill="black" fill-opacity="1" filter="url(#filter-6)" xlink:href="#path-5"></use>
                            <use fill="url(#linearGradient-2)" fill-rule="evenodd" xlink:href="#path-5"></use>
                            <circle stroke="url(#linearGradient-3)" stroke-width="2" cx="28" cy="21" r="8"></circle>
                            <circle stroke="url(#linearGradient-4)" stroke-width="1.5" cx="28" cy="21" r="8.25"></circle>
                        </g>
                        <g id="Combined-Shape" fill-rule="nonzero">
                            <use fill="url(#linearGradient-7)" fill-rule="evenodd" xlink:href="#path-8"></use>
                            <use fill="black" fill-opacity="1" filter="url(#filter-9)" xlink:href="#path-8"></use>
                        </g>
                    </g>
                </g>
            </g>
        </g>
    </g>
</svg>