<?xml version="1.0" encoding="UTF-8" standalone="no"?>
<svg width="36px" height="36px" viewBox="0 0 36 36" version="1.1" xmlns="http://www.w3.org/2000/svg" xmlns:xlink="http://www.w3.org/1999/xlink">
    <!-- Generator: Sketch 49 (51002) - http://www.bohemiancoding.com/sketch -->
    <title>上一步</title>
    <desc>Created with Sketch.</desc>
    <defs></defs>
    <g id="FFFinal" stroke="none" stroke-width="1" fill="none" fill-rule="evenodd">
        <g id="Aa_网络推广会" transform="translate(-15.000000, -241.000000)">
            <g id="video" transform="translate(0.000000, 76.000000)">
                <g id="上一步" transform="translate(15.000000, 165.000000)">
                    <circle id="Oval" fill="#000000" opacity="0.5" cx="18" cy="18" r="18"></circle>
                    <g id="back" transform="translate(11.000000, 11.000000)" fill="#FFFFFF" fill-rule="nonzero">
                        <path d="M3.42788169,8.00000005 L7.75228403,12.2900817 C8.14436109,12.6790471 8.14688364,13.312207 7.75791831,13.7042841 C7.36895297,14.0963611 6.73579302,14.0988837 6.34371597,13.7099184 L0.295715967,7.70991836 C-0.0985719889,7.31875967 -0.0985719889,6.68124043 0.295715967,6.29008174 L6.34371597,0.290081744 C6.73579302,-0.0988835868 7.36895297,-0.0963610372 7.75791831,0.295716017 C8.14688364,0.68779307 8.14436109,1.32095302 7.75228403,1.70991836 L3.42788169,6.00000005 L13,6.00000005 C13.5522847,6.00000005 14,6.4477153 14,7.00000005 C14,7.5522848 13.5522847,8.00000005 13,8.00000005 L3.42788169,8.00000005 Z" id="Combined-Shape"></path>
                    </g>
                </g>
            </g>
        </g>
    </g>
</svg>