<?xml version="1.0" encoding="UTF-8" standalone="no"?>
<svg width="160px" height="184px" viewBox="0 0 160 184" version="1.1" xmlns="http://www.w3.org/2000/svg" xmlns:xlink="http://www.w3.org/1999/xlink">
    <!-- Generator: Sketch 49 (51002) - http://www.bohemiancoding.com/sketch -->
    <title>徽章</title>
    <desc>Created with Sketch.</desc>
    <defs>
        <path d="M86.0350037,2.41478675 L154.035004,41.9808872 C157.728078,44.1297186 160,48.0801678 160,52.3529038 L160,131.647096 C160,135.919832 157.728078,139.870281 154.035004,142.019113 L86.0350037,181.585213 C82.304441,183.755858 77.695559,183.755858 73.9649963,181.585213 L5.96499627,142.019113 C2.27192219,139.870281 -6.58216811e-15,135.919832 -7.10542736e-15,131.647096 L-7.10542736e-15,52.3529038 C-1.93625875e-15,48.0801678 2.27192219,44.1297186 5.96499627,41.9808872 L73.9649963,2.41478675 C77.695559,0.244142329 82.304441,0.244142329 86.0350037,2.41478675 Z" id="path-1"></path>
        <path d="M79.4210036,1.93529078 C77.244842,0.669081533 74.5563276,0.669081533 72.380166,1.93529078 L4.38016596,41.5013912 C2.22587274,42.7548762 0.900584795,45.0593049 0.900584795,47.5517342 L0.900584795,126.845927 C0.900584795,129.338356 2.22587274,131.642785 4.38016596,132.89627 L72.380166,172.46237 C74.5563276,173.728579 77.244842,173.728579 79.4210036,172.46237 L147.421004,132.89627 C149.575297,131.642785 150.900585,129.338356 150.900585,126.845927 L150.900585,47.5517342 C150.900585,45.0593049 149.575297,42.7548762 147.421004,41.5013912 L79.4210036,1.93529078 Z" id="path-2"></path>
        <radialGradient cx="50%" cy="50%" fx="50%" fy="50%" r="50.0127974%" gradientTransform="translate(0.500000,0.500000),scale(0.997700,1.000000),rotate(91.296187),translate(-0.500000,-0.500000)" id="radialGradient-4">
            <stop stop-color="#2D403A" stop-opacity="0" offset="0%"></stop>
            <stop stop-color="#2E403D" stop-opacity="0" offset="20.8724711%"></stop>
            <stop stop-color="#384456" offset="100%"></stop>
        </radialGradient>
    </defs>
    <g id="FFFinal" stroke="none" stroke-width="1" fill="none" fill-rule="evenodd">
        <g id="Ai_网络推广会_获得抽奖机会_关闭弹窗" transform="translate(-108.000000, -324.000000)">
            <g id="contents" transform="translate(10.000000, 91.000000)">
                <g id="徽章" transform="translate(98.000000, 233.000000)">
                    <g id="Mask">
                        <use fill="#EEF6FF" fill-rule="evenodd" xlink:href="#path-1"></use>
                        <path stroke="#384456" stroke-width="4" d="M85.0291698,4.1434562 C81.9203675,2.33458585 78.0796325,2.33458585 74.9708302,4.1434562 L6.97083023,43.7095566 C3.8932685,45.5002495 2,48.7922905 2,52.3529038 L2,131.647096 C2,135.207709 3.8932685,138.499751 6.97083023,140.290443 L74.9708302,179.856544 C78.0796325,181.665414 81.9203675,181.665414 85.0291698,179.856544 L153.02917,140.290443 C156.106732,138.499751 158,135.207709 158,131.647096 L158,52.3529038 C158,48.7922905 156.106732,45.5002495 153.02917,43.7095566 L85.0291698,4.1434562 Z"></path>
                    </g>
                    <g id="Combined-Shape" transform="translate(4.099415, 4.801170)">
                        <mask id="mask-3" fill="white">
                            <use xlink:href="#path-2"></use>
                        </mask>
                        <use id="Mask" fill="#384456" fill-rule="nonzero" opacity="0.0399370336" xlink:href="#path-2"></use>
                        <path d="M73.0997092,79.9373135 L47.1841698,1.72395746 L60.7058589,-1.64737827 L75.4910335,85.1441587 L75.6063363,85.3952179 L68.9327663,-2.69590643 L82.8684033,-2.69590643 L76.1948333,85.3952179 L76.3101361,85.1441587 L91.0953107,-1.64737827 L104.617,1.72395746 L78.7014604,79.9373135 L113.081452,5.07867095 L125.269834,11.8348019 L76.9047105,85.3732498 L77.3340381,84.8675825 L76.9857895,85.4321571 L131.979364,16.7095608 L142.171244,26.2136424 L81.6004459,82.0435497 L147.977426,33.2271509 L155.362188,45.0452414 L77.3874017,85.9268379 L77.1842607,86.114079 L158.901652,52.5454822 L163.208001,65.7990607 L77.3661163,86.6737729 L77.6405183,86.7058508 L164.753045,73.9473276 L165.725146,87.8490181 L83.3314822,87.3711317 L165.150284,96.9358536 L162.491239,110.615454 L77.6063733,87.3421177 L78.219961,87.5941728 L77.5754039,87.4374317 L159.928426,118.502979 L154.038971,131.132956 L82.2241683,90.7790935 L149.162937,138.822256 L140.205282,149.497573 L77.2290395,87.9722524 L76.9881887,87.8369146 L134.165884,155.181505 L122.891717,163.372667 L76.5120846,88.1828245 L76.5663715,88.4537089 L115.619699,167.360045 L102.698802,172.580426 L77.6922563,94.0717203 L93.8790653,174.841686 L80.0473024,176.540013 L75.9506943,88.6178523 L75.9005848,89.2792982 L75.8504753,88.6178523 L71.7538672,176.540013 L57.9221042,174.841686 L74.1089133,94.0717203 L49.1023678,172.580426 L36.1814701,167.360045 L75.2347981,88.4537089 L75.289085,88.1828245 L28.9094529,163.372667 L17.6352856,155.181505 L74.8129809,87.8369146 L74.5721301,87.9722524 L11.5958872,149.497573 L2.63823231,138.822256 L69.5770013,90.7790935 L-2.23780187,131.132956 L-8.12725659,118.502979 L74.2257657,87.4374317 L73.5812086,87.5941728 L74.1947963,87.3421177 L-10.690069,110.615454 L-13.3491139,96.9358536 L68.4696874,87.3711317 L-13.9239766,87.8490181 L-12.9518757,73.9473276 L74.1606513,86.7058508 L74.4350533,86.6737729 L-11.4068311,65.7990607 L-7.10048237,52.5454822 L74.6169089,86.114079 L74.4137679,85.9268379 L-3.56101864,45.0452414 L3.8237439,33.2271509 L70.2007237,82.0435497 L9.62992546,26.2136424 L19.8218052,16.7095608 L74.8153801,85.4321571 L74.4671315,84.8675825 L74.8964591,85.3732498 L26.5313352,11.8348019 L38.7197181,5.07867095 L73.0997092,79.9373135 Z" fill="url(#radialGradient-4)" opacity="0.1" mask="url(#mask-3)"></path>
                        <path d="M0.900584795,117.19883 C25.6374324,113.19883 50.6374351,111.19883 75.900593,111.19883 C101.163751,111.19883 126.163748,113.19883 150.900585,117.19883 L150.900585,127.869226 C150.900585,130.000271 149.770231,131.971408 147.930963,133.04772 L78.9309713,173.425498 C77.059187,174.520838 74.7419989,174.520838 72.8702145,173.425498 L3.87020668,133.04772 C2.03093899,131.971408 0.900584795,130.00027 0.900584795,127.869225 L0.900584795,117.19883 Z M61.1637309,155.549708 L63.2261353,156.633978 L62.8322511,154.337457 L64.5007713,152.711051 L62.1949331,152.375994 L61.1637309,150.28655 L60.1325287,152.375994 L57.8266905,152.711051 L59.4952107,154.337457 L59.1013265,156.633978 L61.1637309,155.549708 Z M90.6374269,155.549708 L92.6998313,156.633978 L92.3059471,154.337457 L93.9744673,152.711051 L91.6686291,152.375994 L90.6374269,150.28655 L89.6062247,152.375994 L87.3003865,152.711051 L88.9689067,154.337457 L88.5750225,156.633978 L90.6374269,155.549708 Z M75.9005848,157.304094 L79.2004318,159.038926 L78.5702171,155.364492 L81.2398494,152.762244 L77.5505083,152.226151 L75.9005848,148.883041 L74.2506613,152.226151 L70.5613201,152.762244 L73.2309525,155.364492 L72.6007378,159.038926 L75.9005848,157.304094 Z" fill="#384456" mask="url(#mask-3)"></path>
                    </g>
                    <path d="M44.7,126.44 L48.74,126.44 L48.3,128.54 L55.46,128.54 L55.46,130.06 L47.98,130.06 L47.44,132.74 L43.42,132.74 L44.7,126.44 Z M37.72,126.44 L41.78,126.44 L41.78,130.16 L43.02,130.16 L43.02,131.7 L41.78,131.7 L41.78,137.3 L43.02,137 L43.02,138.52 L41.78,138.82 L41.78,143.54 C41.78,144.6 40.76,145.46 39.52,145.46 L36.66,145.46 L36.66,143.92 L37.06,143.92 C37.42,143.92 37.72,143.68 37.72,143.36 L37.72,139.76 L36.54,140.04 L36.54,138.5 L37.72,138.24 L37.72,131.7 L36.54,131.7 L36.54,130.16 L37.72,130.16 L37.72,126.44 Z M48.14,131.64 L51.7,131.64 L51.7,134.52 L55.46,133.46 L55.46,141.3 L52.12,141.3 L52.12,135.76 L51.7,135.9 L51.7,142.62 L48.14,142.62 L48.14,136.96 L47.7,137.1 L47.7,143.84 L55.46,143.84 L55.46,145.36 L43.98,145.36 L43.98,138.22 L43.62,138.32 L43.62,136.8 L43.98,136.7 L43.98,133.58 L47.7,133.58 L47.7,135.66 L48.14,135.54 L48.14,131.64 Z M67.0866672,145.46 L67.0866672,143.94 L78.1066672,143.94 L78.1066672,145.46 L67.0866672,145.46 Z M67.0866672,130.46 L67.0866672,128.94 L70.1466672,128.94 L70.1466672,126.7 L75.0666672,126.7 L75.0666672,128.94 L78.1066672,128.94 L78.1066672,130.46 L67.0866672,130.46 Z M73.8866672,131.78 L77.7666672,131.78 L77.1066672,142.96 L73.2466672,142.96 L73.8866672,131.78 Z M67.4266672,131.78 L71.3066672,131.78 L71.9466672,142.96 L68.0866672,142.96 L67.4266672,131.78 Z M60.5066672,126.44 L64.9866672,126.44 L64.9866672,130.16 L66.3466672,130.16 L66.3466672,131.7 L64.9866672,131.7 L64.9866672,137.3 L66.3466672,137 L66.3466672,138.52 L64.9866672,138.82 L64.9866672,143.54 C64.9866672,144.6 63.8866672,145.46 62.5066672,145.46 L59.3466672,145.46 L59.3466672,143.92 L59.7666672,143.92 C60.1666672,143.92 60.5066672,143.68 60.5066672,143.36 L60.5066672,139.76 L59.2066672,140.04 L59.2066672,138.5 L60.5066672,138.24 L60.5066672,131.7 L59.2066672,131.7 L59.2066672,130.16 L60.5066672,130.16 L60.5066672,126.44 Z M83.6933344,145.42 L81.8533344,145.42 L82.1133344,131.2 L83.9733344,131.2 L83.6933344,145.42 Z M88.2133344,131.2 L90.0533344,131.2 L90.3533344,145.42 L88.4733344,145.42 L88.2133344,131.2 Z M81.8533344,130.44 L81.8533344,128.9 L84.2333344,128.9 L84.2333344,126.44 L87.9733344,126.44 L87.9733344,128.9 L90.3533344,128.9 L90.3533344,130.44 L87.9733344,130.44 L87.9733344,145.42 L84.2333344,145.42 L84.2333344,130.44 L81.8533344,130.44 Z M90.8133344,145.46 L90.8133344,126.76 L99.9533344,126.76 L99.9533344,143.94 L100.793334,143.94 L100.793334,145.46 L95.8733344,145.46 L95.8733344,128.26 L94.8933344,128.26 L94.8933344,145.46 L90.8133344,145.46 Z M105.060002,128.7 L105.060002,127.18 L122.920002,127.18 L122.920002,128.7 L116.460002,128.7 L116.460002,132.78 L122.920002,132.78 L122.920002,134.3 L116.460002,134.3 L116.460002,138.4 L123.480002,138.4 L123.480002,139.92 L116.460002,139.92 L116.460002,143.6 C116.460002,144.64 115.600002,145.5 114.560002,145.5 L109.360002,145.5 L109.360002,143.98 L111.140002,143.98 C111.460002,143.98 111.700002,143.74 111.700002,143.4 L111.700002,139.92 L104.520002,139.92 L104.520002,138.4 L111.700002,138.4 L111.700002,134.3 L105.060002,134.3 L105.060002,132.78 L111.700002,132.78 L111.700002,128.7 L105.060002,128.7 Z" id="拖拉机手" fill="#EEF6FF"></path>
                    <path d="M56.4555689,83.4369992 C53.3210152,84.2614642 48.1285579,88.1660499 47.7192982,94.2499023 C51.9392216,89.9798911 56.9353198,87.9144212 62.7075927,88.0534927 C63.879271,89.8305936 64.5614035,91.9604057 64.5614035,94.2499023 C64.5614035,100.46516 59.5344253,105.503622 53.3333333,105.503622 C47.1322414,105.503622 42.1052632,100.46516 42.1052632,94.2499023 C42.1052632,88.0346446 47.1322414,82.9961826 53.3333333,82.9961826 C54.4167692,82.9961826 55.464364,83.1499868 56.4555689,83.4369992 Z M78.1716142,98.8988593 C78.450634,97.3918341 78.5964912,95.8379405 78.5964912,94.2499023 C78.5964912,80.2655724 67.2857902,68.929033 53.3333333,68.929033 C47.6664518,68.929033 42.4353626,70.799144 38.2208925,73.9572125 L36.4912281,70.7224503 L36.4912281,66.8747025 L49.9777821,65.2933616 C50.6935004,63.1474913 51.415625,61.5347246 52.1441559,60.4550614 C53.2369522,58.8355667 56.4501007,56.5115884 56.9245363,56.3807751 C57.2408267,56.2935663 57.709603,56.2355407 58.3308652,56.2066982 L58.3365532,52.7912472 C57.1028196,53.0714395 56.0563034,53.2040412 55.1970047,53.1890522 C53.9080566,53.1665686 52.8480098,53.0110576 52.5848079,52.1575355 C52.321606,51.3040134 53.3978552,50.0522605 54.526762,49.3225681 C55.2793666,48.8361065 56.0061163,48.4314883 56.7070113,48.1087135 C56.6555889,47.1485083 56.7809273,46.5224047 57.0830263,46.2304028 C57.5361748,45.7924 58.2843265,45.9560017 58.7808249,45.8526116 C59.2773233,45.7492214 59.2269926,45.0792296 59.9538573,45.0175702 C60.4384337,44.976464 60.9581727,45.4062058 61.5130742,46.3067957 C64.4147298,45.9986693 66.1053466,46.27889 66.5849244,47.1474579 C67.146362,48.1642827 65.9558346,49.4961474 63.0133421,51.1430519 C63.0030576,52.6108396 62.9248325,53.4890595 62.7786667,53.7777116 C62.6325009,54.0663636 62.315837,54.329523 61.8286751,54.5671897 L62.0985131,55.3522393 C63.7003616,55.1755506 64.9849718,55.2170827 65.9523436,55.4768355 C66.9197154,55.7365882 71.6535284,58.5267022 80.1537828,63.8471773 C81.3032299,63.5158293 81.9728692,63.3501553 82.1627009,63.3501553 C82.3525326,63.3501553 82.739895,63.5870271 83.3247881,64.0607708 L82.3652302,65.6451776 L83.2479131,66.2855321 L82.6106785,67.5866806 L87.5320538,70.7224503 L88.9897475,69.9228375 C93.2351059,69.9532698 96.6706919,70.044169 99.2965056,70.1955354 C101.922319,70.3469017 104.469707,70.4788504 106.938668,70.5913816 L106.927981,47.7909635 L110.530072,48.1622822 L109.04187,70.7224503 C110.461643,70.7591847 111.450417,70.8098862 112.008191,70.8745547 C112.565965,70.9392232 113.920843,71.3047223 116.072825,71.9710521 L116.069894,68.2884389 C115.926027,68.2884389 115.670926,68.2884389 115.304592,68.2884389 C114.755091,68.2884389 114.179477,67.7696147 114.179477,67.3887575 C114.179477,67.1348527 114.170457,66.204881 114.152416,64.5988423 C114.250664,63.8388312 114.498497,63.4461644 114.895914,63.4208421 C115.49204,63.3828586 118.029516,63.47918 118.780598,63.7265839 C119.53168,63.9739878 119.623723,64.6934604 119.623723,65.2548671 C119.623723,65.8162738 119.623723,66.8546036 119.623723,67.5866806 C119.623723,68.074732 119.222456,68.3187576 118.419923,68.3187576 L117.987286,68.3171395 L117.965999,72.7360879 C118.990481,73.2579213 119.759202,73.7471082 120.272161,74.2036486 C121.0416,74.8884591 122.032184,75.9280664 122.086479,76.4250885 C122.122676,76.7564365 122.10656,77.3918514 122.038131,78.3313332 L94.7176202,77.0100006 L94.7176202,78.8042536 L121.589205,80.081556 L119.623723,94.5808713 L112.953529,94.5808713 L112.953529,95.7673879 L109.04187,95.7673879 L109.04187,94.5808713 L99.2501393,94.5808713 L94.7176202,99.8767622 L78.1317969,99.8767622 C78.14925,99.5529435 78.1625224,99.2269759 78.1716142,98.8988593 Z M112.208143,102.905371 C111.087908,103.420031 109.604215,104.835586 109.473684,106.910337 C110.866077,105.403873 112.493473,104.611095 114.355874,104.532003 C114.817656,105.209212 115.087719,106.028164 115.087719,106.910337 C115.087719,109.241059 113.202602,111.130482 110.877193,111.130482 C108.551784,111.130482 106.666667,109.241059 106.666667,106.910337 C106.666667,104.579615 108.551784,102.690192 110.877193,102.690192 C111.342311,102.690192 111.789815,102.765781 112.208143,102.905371 Z M110.877193,116.757342 C105.451238,116.757342 101.052632,112.348687 101.052632,106.910337 C101.052632,101.471986 105.451238,97.0633322 110.877193,97.0633322 C116.303148,97.0633322 120.701754,101.471986 120.701754,106.910337 C120.701754,112.348687 116.303148,116.757342 110.877193,116.757342 Z M110.877193,112.537197 C113.977739,112.537197 116.491228,110.017966 116.491228,106.910337 C116.491228,103.802708 113.977739,101.283477 110.877193,101.283477 C107.776647,101.283477 105.263158,103.802708 105.263158,106.910337 C105.263158,110.017966 107.776647,112.537197 110.877193,112.537197 Z M94.5605469,80.8735748 L94.5279948,83.0379101 L108.93332,83.3737908 L108.899226,81.4998308 L94.5605469,80.8735748 Z M94.7685376,84.6906972 L94.7359855,86.8550326 L108.970326,87.0477003 L108.936232,85.1737403 L94.7685376,84.6906972 Z M67.2942078,62.1631276 C67.9304083,64.5789137 68.2794481,65.9817207 68.3413273,66.3715486 C68.434146,66.9562904 69.1882444,67.6204059 69.4142154,68.0956257 C69.5648627,68.412439 69.5850007,69.9266983 69.4746294,72.6384039 C69.9603149,72.4086727 70.4203293,72.2952615 70.8546725,72.2981703 C71.5061874,72.3025335 73.2959691,72.0294752 74.9989387,72.2994478 C76.7019083,72.5694203 77.5762315,74.2567914 78.5578521,75.7892477 C79.2122659,76.8108852 80.532527,79.7429974 82.5186354,84.5855841 L82.834581,73.246055 L86.3485933,71.3368295 L81.9022569,68.4552769 L81.2892433,69.3694609 C81.2362059,69.4485553 81.1347555,69.4792835 81.0467445,69.4429113 L80.3735487,69.1647001 L79.5288171,70.4635357 C79.4693023,70.5550439 79.3474064,70.5819287 79.2549204,70.523945 L78.6794251,70.1631409 C78.5874896,70.1055024 78.5582855,69.9850687 78.6136081,69.8917214 L80.5934007,66.5511612 C78.9727668,67.0881823 77.8256467,67.3833637 77.1520404,67.4367053 C75.2627019,67.5863185 73.8741012,67.0671457 73.2610651,66.8888398 C71.8497377,66.4783453 70.3893723,65.329216 69.8892542,64.9653066 C69.5558422,64.7227003 68.6908267,63.7886407 67.2942078,62.1631276 Z M62.6401711,56.5517862 L63.8999033,62.388048 L59.3761748,62.5438145 L57.8024792,60.3304653 L58.8609748,63.5444163 L61.1856662,63.8578229 L61.4443004,64.633334 C63.338653,64.7154329 64.5643142,64.7780007 65.1212841,64.8210373 C65.678254,64.864074 66.2121844,65.0478029 66.7230752,65.3722242 L66.183227,62.155548 L65.0600082,62.1288062 L63.8458667,56.5608136 L62.6401711,56.5517862 Z M61.8439042,49.9712651 L62.3594264,53.6294624 C62.5691875,53.1579244 62.6903155,52.5318687 62.7228104,51.7512953 C62.7553054,50.9707219 62.7028794,50.299304 62.5655325,49.7370416 L61.8439042,49.9712651 Z M57.4052563,46.6267968 C57.2529468,46.7321745 57.1852728,47.1783555 57.2022341,47.9653397 C57.7834316,47.7078197 58.1718293,47.5391353 58.3674274,47.4592864 C58.5630254,47.3794374 59.0811175,47.1954701 59.9217037,46.9073843 L58.9191852,46.9073843 C58.6080558,46.6829487 58.3801341,46.5367307 58.2354201,46.4687303 C58.0183491,46.3667297 57.6337205,46.4687303 57.4052563,46.6267968 Z M53.3333333,116.757342 C40.9311495,116.757342 30.877193,106.680418 30.877193,94.2499023 C30.877193,81.8193868 40.9311495,71.742463 53.3333333,71.742463 C65.7355172,71.742463 75.7894737,81.8193868 75.7894737,94.2499023 C75.7894737,106.680418 65.7355172,116.757342 53.3333333,116.757342 Z M53.3333333,108.317052 C61.0846982,108.317052 67.3684211,102.018975 67.3684211,94.2499023 C67.3684211,86.4808301 61.0846982,80.1827527 53.3333333,80.1827527 C45.5819684,80.1827527 39.2982456,86.4808301 39.2982456,94.2499023 C39.2982456,102.018975 45.5819684,108.317052 53.3333333,108.317052 Z" id="Combined-Shape" fill="#384456"></path>
                </g>
            </g>
        </g>
    </g>
</svg>