<?xml version="1.0" encoding="UTF-8" standalone="no"?>
<svg width="58px" height="40px" viewBox="0 0 58 40" version="1.1" xmlns="http://www.w3.org/2000/svg" xmlns:xlink="http://www.w3.org/1999/xlink">
    <!-- Generator: Sketch 49 (51002) - http://www.bohemiancoding.com/sketch -->
    <title>members</title>
    <desc>Created with Sketch.</desc>
    <defs>
        <path d="M22.472918,22.800856 C24.0483267,22.266952 25.8906873,22 28,22 C30.1093127,22 31.9516733,22.266952 33.527082,22.800856 C35.0053496,23.3018435 36,24.6891465 36,26.25 L36.0000033,27.6111267 C36.0000033,28.1206817 35.6168603,28.5487494 35.1104213,28.6050149 C32.7402809,28.8683383 30.3701404,29 28,29 C25.6298575,29 23.259715,28.8683381 20.8895725,28.6050142 C20.3831392,28.5487428 20,28.1206793 20,27.6111293 L20,26.25 C20,24.6891465 20.9946504,23.3018435 22.4729194,22.8008601 Z M28,13 C30.209139,13 32,14.790861 32,17 C32,19.209139 30.209139,21 28,21 C25.790861,21 24,19.209139 24,17 C24,14.790861 25.790861,13 28,13 Z" id="path-1"></path>
        <filter x="-43.7%" y="-31.2%" width="187.5%" height="187.5%" filterUnits="objectBoundingBox" id="filter-2">
            <feOffset dx="0" dy="2" in="SourceAlpha" result="shadowOffsetOuter1"></feOffset>
            <feGaussianBlur stdDeviation="2" in="shadowOffsetOuter1" result="shadowBlurOuter1"></feGaussianBlur>
            <feColorMatrix values="0 0 0 0 0.294117647   0 0 0 0 0.654901961   0 0 0 0 0.968627451  0 0 0 0.2 0" type="matrix" in="shadowBlurOuter1"></feColorMatrix>
        </filter>
    </defs>
    <g id="FFFinal" stroke="none" stroke-width="1" fill="none" fill-rule="evenodd">
        <g id="Aa_网络推广会" transform="translate(-30.000000, -396.000000)">
            <g id="Group-6" transform="translate(10.000000, 298.000000)">
                <g id="Group-7" transform="translate(20.000000, 80.000000)">
                    <g id="members" transform="translate(0.000000, 17.000000)">
                        <g id="Group-5">
                            <path d="M46.2349876,12.7814261 C46.2422782,12.7975504 46.2495456,12.8136803 46.2567899,12.8298157 C46.8946931,12.662075 47.590844,12.9323372 47.9365335,13.5310889 C48.350747,14.2485278 48.1049343,15.1659135 47.3874954,15.580127 L43.0573684,18.080127 C42.3399294,18.4943406 42.0941167,19.4117262 42.5083302,20.1291651 C42.9225438,20.8466041 43.8399294,21.0924168 44.5573684,20.6782032 L49.7535208,17.6782032 C50.4709597,17.2639897 51.3883453,17.5098024 51.8025589,18.2272413 C52.2167724,18.9446803 51.9709597,19.8620659 51.2535208,20.2762794 L47.9677807,22.1733024 L47.9668551,22.1887087 C48.6518097,21.9048641 49.4577091,22.1658424 49.8384573,22.8253175 C50.2526708,23.5427565 50.0068581,24.4601421 49.2894192,24.8743557 L34.5669873,33.3743557 C33.8495484,33.7885692 33.6037356,34.7059548 34.0179492,35.4233938 C34.4321628,36.1408327 35.3495484,36.3866454 36.0669873,35.9724319 L45.6286407,30.4520087 C43.9289757,33.6292447 41.3501278,36.3863109 38,38.3205081 C28.6333826,43.7283271 16.7107048,40.6985609 11.0332235,31.5894991 C10.9959044,31.5401609 10.9612219,31.4879706 10.9294919,31.4330127 C10.9114533,31.4017689 10.8946664,31.3701458 10.8791157,31.3382016 C10.8116384,31.2263578 10.7450919,31.1136225 10.6794919,31 C9.99456025,29.8136635 9.44498172,28.5863235 9.02596484,27.3358622 L14.308657,24.2858984 C15.026096,23.8716848 15.2719087,22.9542992 14.8576952,22.2368603 C14.4434816,21.5194213 13.526096,21.2736086 12.808657,21.6878222 L8.27000442,24.3082145 L8.26681293,24.2891067 C7.58944445,24.5504443 6.80390623,24.2872887 6.42949192,23.6387841 C6.01527836,22.9213451 6.26109109,22.0039595 6.97853003,21.589746 L13.0407079,18.089746 C13.7581468,17.6755324 14.0039595,16.7581468 13.589746,16.0407079 C13.1755324,15.3232689 12.2581468,15.0774562 11.5407079,15.4916698 L7.21058084,17.9916698 C6.4931419,18.4058833 5.57575629,18.1600706 5.16154273,17.4426316 C4.74732917,16.7251927 4.9931419,15.8078071 5.71058084,15.3935935 L9.60600657,13.1445684 C11.2452878,9.29793455 14.1000285,5.9311415 18,3.67949192 C27.2754527,-1.67569319 39.057452,1.24326136 44.7992342,10.1462571 L43.52147,10.8839746 C42.804031,11.2981882 42.5582183,12.2155738 42.9724319,12.9330127 C43.3866454,13.6504516 44.304031,13.8962644 45.02147,13.4820508 L46.2349876,12.781426 Z M0.916352203,25.089746 L1.78237761,24.589746 C2.49981654,24.1755324 3.41720215,24.4213451 3.83141571,25.1387841 C4.24562928,25.856223 3.99981654,26.7736086 3.28237761,27.1878222 L2.4163522,27.6878222 C1.69891327,28.1020357 0.78152766,27.856223 0.367314098,27.1387841 C-0.0468994646,26.4213451 0.198913268,25.5039595 0.916352203,25.089746 Z M54.7176224,18.2762794 L55.5836478,17.7762794 C56.3010867,17.3620659 57.2184723,17.6078786 57.6326859,18.3253175 C58.0468995,19.0427565 57.8010867,19.9601421 57.0836478,20.3743557 L56.2176224,20.8743557 C55.5001835,21.2885692 54.5827978,21.0427565 54.1685843,20.3253175 C53.7543707,19.6078786 54.0001835,18.690493 54.7176224,18.2762794 Z" id="Combined-Shape" fill="#DFEEFB"></path>
                            <g id="members">
                                <use fill="black" fill-opacity="1" filter="url(#filter-2)" xlink:href="#path-1"></use>
                                <use fill="#4BA7F7" fill-rule="evenodd" xlink:href="#path-1"></use>
                            </g>
                        </g>
                    </g>
                </g>
            </g>
        </g>
    </g>
</svg>