<?xml version="1.0" encoding="UTF-8" standalone="no"?>
<svg width="36px" height="36px" viewBox="0 0 36 36" version="1.1" xmlns="http://www.w3.org/2000/svg" xmlns:xlink="http://www.w3.org/1999/xlink">
    <!-- Generator: Sketch 49 (51002) - http://www.bohemiancoding.com/sketch -->
    <title>下一步</title>
    <desc>Created with Sketch.</desc>
    <defs></defs>
    <g id="FFFinal" stroke="none" stroke-width="1" fill="none" fill-rule="evenodd">
        <g id="Aa_网络推广会" transform="translate(-117.000000, -241.000000)">
            <g id="video" transform="translate(0.000000, 76.000000)">
                <g id="下一步" transform="translate(117.000000, 165.000000)">
                    <circle id="Oval" fill="#000000" opacity="0.5" cx="18" cy="18" r="18"></circle>
                    <path d="M14.4278817,19 L18.752284,23.2900817 C19.1443611,23.6790471 19.1468836,24.312207 18.7579183,24.7042841 C18.368953,25.0963611 17.735793,25.0988837 17.343716,24.7099184 L11.295716,18.7099184 C10.901428,18.3187597 10.901428,17.6812404 11.295716,17.2900817 L17.343716,11.2900817 C17.735793,10.9011164 18.368953,10.903639 18.7579183,11.295716 C19.1468836,11.6877931 19.1443611,12.320953 18.752284,12.7099184 L14.4278817,17 L24,17 C24.5522847,17 25,17.4477153 25,18 C25,18.5522848 24.5522847,19 24,19 L14.4278817,19 Z" id="Combined-Shape" fill="#FFFFFF" fill-rule="nonzero" transform="translate(18.000000, 18.000000) scale(-1, 1) translate(-18.000000, -18.000000) "></path>
                </g>
            </g>
        </g>
    </g>
</svg>