<?xml version="1.0" encoding="UTF-8" standalone="no"?>
<svg width="73px" height="64px" viewBox="0 0 73 64" version="1.1" xmlns="http://www.w3.org/2000/svg" xmlns:xlink="http://www.w3.org/1999/xlink">
    <!-- Generator: Sketch 49 (51002) - http://www.bohemiancoding.com/sketch -->
    <title>奖励</title>
    <desc>Created with Sketch.</desc>
    <defs>
        <radialGradient cx="51.1287272%" cy="43.4550992%" fx="51.1287272%" fy="43.4550992%" r="37.6360698%" id="radialGradient-1">
            <stop stop-color="#FFF49C" offset="0%"></stop>
            <stop stop-color="#FFE862" stop-opacity="0.1" offset="41.968479%"></stop>
            <stop stop-color="#FFD613" stop-opacity="0" offset="100%"></stop>
        </radialGradient>
        <linearGradient x1="50%" y1="100%" x2="50%" y2="3.061617e-15%" id="linearGradient-2">
            <stop stop-color="#FFC51B" offset="0%"></stop>
            <stop stop-color="#FFD713" offset="100%"></stop>
        </linearGradient>
        <linearGradient x1="50%" y1="-2.48949813e-15%" x2="50%" y2="100%" id="linearGradient-3">
            <stop stop-color="#FEBE0D" offset="0%"></stop>
            <stop stop-color="#FDE808" offset="100%"></stop>
        </linearGradient>
        <circle id="path-4" cx="37" cy="25" r="23"></circle>
        <filter x="-15.2%" y="-10.9%" width="130.4%" height="130.4%" filterUnits="objectBoundingBox" id="filter-5">
            <feOffset dx="0" dy="2" in="SourceAlpha" result="shadowOffsetOuter1"></feOffset>
            <feGaussianBlur stdDeviation="2" in="shadowOffsetOuter1" result="shadowBlurOuter1"></feGaussianBlur>
            <feComposite in="shadowBlurOuter1" in2="SourceAlpha" operator="out" result="shadowBlurOuter1"></feComposite>
            <feColorMatrix values="0 0 0 0 0.980392157   0 0 0 0 0.678431373   0 0 0 0 0.031372549  0 0 0 0.4 0" type="matrix" in="shadowBlurOuter1"></feColorMatrix>
        </filter>
        <linearGradient x1="50%" y1="0%" x2="50%" y2="100%" id="linearGradient-6">
            <stop stop-color="#FFE04B" offset="0%"></stop>
            <stop stop-color="#FFD32A" offset="100%"></stop>
        </linearGradient>
        <path d="M32.6001649,31.6037382 C32.6001649,31.5256753 32.6040131,31.4487119 32.6122592,31.3733976 C32.6545891,30.5960669 32.844249,29.1870861 33.7001924,28.303106 C33.6919463,29.3195732 34.4923661,29.4031335 34.732602,29.4047827 C34.7551413,29.404233 34.7771309,29.4036833 34.8002199,29.4036833 L39.2003298,29.4036833 C40.4152528,29.4036833 41.3998351,30.3888153 41.3998351,31.6037382 L41.3998351,33.8043429 C41.3998351,35.0192658 40.4152528,36.0049476 39.2003298,36.0049476 L34.8002199,36.0049476 C33.585297,36.0049476 32.6001649,35.0192658 32.6001649,33.8043429 L32.6001649,31.8786077 C32.6001649,31.8643145 32.6001649,31.8456233 32.6001649,31.825283 L32.6001649,31.6037382 Z M36.2157975,21.7419726 C36.3911642,21.696894 36.5681801,21.6913966 36.7369499,21.7183338 C36.7462955,21.8117894 36.7638872,21.9057947 36.7902746,21.9992504 C36.9227617,22.4742247 37.2509558,22.8469477 37.6665584,23.0580474 C38.303156,23.3807441 39.330618,23.7941478 39.5444664,24.5593843 C39.5444664,24.5593843 39.5444664,24.5593843 39.5450161,24.559934 C39.8248332,25.5582598 39.4097804,26.1860616 39.3273195,26.402109 C38.1437317,23.9942527 35.7133362,24.5857718 35.3362153,23.2389115 C35.1526025,22.5836228 35.5462155,21.9134911 36.2157975,21.7419726 Z M38.6643344,26.7660361 C38.8479472,27.4213249 38.4537845,28.0909068 37.7842025,28.2624253 C37.6088358,28.3075039 37.4318199,28.3135511 37.2630501,28.2866139 C37.2537045,28.1926085 37.2366626,28.0991529 37.2102751,28.0051476 C37.0772383,27.5307229 36.7490442,27.1574502 36.3334416,26.9469002 C35.6973937,26.6242035 34.6699318,26.2097004 34.4555336,25.4455634 C34.4555336,25.4450136 34.4555336,25.4450136 34.4555336,25.4450136 C34.1757165,24.4461381 34.5902196,23.8183363 34.6732302,23.6028387 C35.8562683,26.0101452 38.2866638,25.4186262 38.6643344,26.7660361 Z M32.5985157,22.7342512 C32.5990654,22.7567905 32.6001649,22.7793298 32.6001649,22.8018691 L32.6001649,27.2030785 C32.6001649,28.4180014 31.6150329,29.4036833 30.4001099,29.4036833 L28.200055,29.4036833 C26.9851321,29.4036833 26,28.4180014 26,27.2030785 L26,22.8018691 C26,21.5863965 26.9851321,20.6012644 28.200055,20.6012644 L30.1252405,20.6012644 L30.1785652,20.6012644 L30.4001099,20.6012644 C30.4781729,20.6012644 30.5551363,20.6056623 30.6310003,20.6133587 C31.408331,20.6551388 32.8162123,20.8458982 33.7001924,21.7012919 C32.6837252,21.6935955 32.6001649,22.4940153 32.5985157,22.7342512 Z M41.3998351,18.4006597 C41.3998351,18.4787226 41.3959869,18.555686 41.3877408,18.63155 C41.3459607,19.4088808 41.155751,20.8173118 40.2998076,21.7012919 C40.3080537,20.6853744 39.5076339,20.6018141 39.267398,20.5996152 C39.2448587,20.6001649 39.2228691,20.6012644 39.2003298,20.6012644 L34.8002199,20.6012644 C33.585297,20.6012644 32.6001649,19.6161323 32.6001649,18.4006597 L32.6001649,16.200055 C32.6001649,14.9851321 33.585297,14 34.8002199,14 L39.2003298,14 C40.4152528,14 41.3998351,14.9851321 41.3998351,16.200055 L41.3998351,18.1257902 L41.3998351,18.1791149 L41.3998351,18.4006597 Z M45.799945,29.4036833 L43.8753092,29.4036833 L43.8219846,29.4036833 L43.5998901,29.4036833 C43.5223769,29.4036833 43.4454134,29.3992853 43.3695495,29.391589 C42.5922187,29.3492591 41.1837877,29.1590495 40.2998076,28.303106 C41.3162748,28.3113521 41.3998351,27.5109323 41.402034,27.2706964 C41.4009346,27.2481571 41.3998351,27.2256178 41.3998351,27.2030785 L41.3998351,22.8018691 C41.3998351,21.5863965 42.3849671,20.6012644 43.5998901,20.6012644 L45.799945,20.6012644 C47.0154177,20.6012644 48,21.5863965 48,22.8018691 L48,27.2030785 C48,28.4180014 47.0154177,29.4036833 45.799945,29.4036833 Z" id="path-7"></path>
        <filter x="-1.8%" y="-1.8%" width="103.6%" height="107.3%" filterUnits="objectBoundingBox" id="filter-8">
            <feOffset dx="0" dy="0.8" in="SourceAlpha" result="shadowOffsetOuter1"></feOffset>
            <feColorMatrix values="0 0 0 0 1   0 0 0 0 0.737254902   0 0 0 0 0  0 0 0 1 0" type="matrix" in="shadowOffsetOuter1"></feColorMatrix>
        </filter>
        <polygon id="path-9" points="1.95402299 2.85396825 0.572320083 3.3600197 1.07471264 1.96825397 0.572320083 0.57648824 1.95402299 1.08253968 3.33572589 0.57648824 2.83333333 1.96825397 3.33572589 3.3600197"></polygon>
        <filter x="-3.4%" y="-5.3%" width="106.9%" height="121.1%" filterUnits="objectBoundingBox" id="filter-11">
            <feOffset dx="0" dy="1" in="SourceAlpha" result="shadowOffsetOuter1"></feOffset>
            <feGaussianBlur stdDeviation="0.5" in="shadowOffsetOuter1" result="shadowBlurOuter1"></feGaussianBlur>
            <feColorMatrix values="0 0 0 0 0.952941176   0 0 0 0 0.203921569   0 0 0 0 0.188235294  0 0 0 0.2 0" type="matrix" in="shadowBlurOuter1" result="shadowMatrixOuter1"></feColorMatrix>
            <feMerge>
                <feMergeNode in="shadowMatrixOuter1"></feMergeNode>
                <feMergeNode in="SourceGraphic"></feMergeNode>
            </feMerge>
        </filter>
        <path d="M8.04827342,14.2750401 L8.17402698,13.5255162 L17.5036268,15.0908172 L17.3778732,15.8403411 L8.04827342,14.2750401 Z M9.44361625,7.04627681 L9.56771516,6.30661509 L12.8813997,6.86257823 L13.0998138,5.56077361 L15.4470069,5.95458083 L15.2285929,7.25638546 L18.5422774,7.81234859 L18.4181784,8.55201031 L9.44361625,7.04627681 Z M12.2672821,13.7864037 L9.9299511,13.3942512 L9.98047907,7.71431746 L12.3178101,8.10647003 L12.2672821,13.7864037 Z M15.8866935,14.3936611 L13.5493624,14.0015085 L15.3553542,8.61610291 L17.6926853,9.00825548 L15.8866935,14.3936611 Z M21.9273378,14.8581066 L22.0571024,13.3938453 L24.0094508,13.5668648 L23.887631,14.9414775 C23.8320176,15.569018 23.3279102,16.0463814 22.7800574,15.99783 L19.1542675,15.6765081 L19.9708135,6.46261902 L24.5827385,6.87133338 L24.1581346,11.6625557 C24.1051694,12.2602134 23.7845225,12.5932082 23.2864744,12.5490706 L21.344087,12.3769338 L21.1048611,15.0763543 L21.652714,15.1249057 C21.7921674,15.1372642 21.9132138,15.017482 21.9273378,14.8581066 Z M24.9430986,6.88319055 L29.1864681,7.25924307 L28.5773689,14.1323063 C28.530583,14.6602372 28.0634206,15.0605612 27.5454506,15.0146581 L26.3202524,14.9060795 L26.3891071,14.1291245 L26.5285605,14.1414831 C26.6381311,14.1511934 26.7248808,14.0785677 26.7345911,13.9689971 L27.2757183,7.86292789 L26.7378264,7.81525926 L25.9830731,16.3318811 L24.1203734,16.1668064 L24.9430986,6.88319055 Z M21.7854632,7.39645324 L21.6309815,9.13962145 L22.4776632,9.2146554 L22.6321449,7.47148719 L21.7854632,7.39645324 Z M21.4120589,11.6099398 L22.0694824,11.6682015 C22.169092,11.677029 22.2693337,11.5654422 22.2834577,11.4060669 L22.4096913,9.98164941 L21.5630096,9.90661546 L21.4120589,11.6099398 Z M35.3774007,12.566527 L35.3989381,15.3164426 L35.7589271,15.3136232 L35.7373896,12.5637075 L35.3774007,12.566527 Z M35.3498328,9.04663492 L35.3714485,11.8065503 L35.7314375,11.8037308 L35.7098217,9.04381548 L35.3498328,9.04663492 Z M37.816671,15.0174983 L37.7973265,12.547574 L37.4273378,12.5504718 L37.4488752,15.3003875 L37.5188731,15.2998392 C37.6888679,15.2985078 37.8179241,15.1774934 37.816671,15.0174983 Z M37.7697586,9.02768199 L37.3997699,9.03057975 L37.4213856,11.7904951 L37.7913743,11.7875973 L37.7697586,9.02768199 Z M30.6808658,6.64312759 L32.6108066,6.62801223 L32.6253738,8.48795518 L33.2153557,8.48333443 L33.2213861,9.25331081 L32.6314042,9.25793157 L32.6533333,12.0578457 L33.2421404,11.9032295 L33.2480926,12.6632062 L32.6592854,12.8178224 L32.6777684,15.17775 C32.6819193,15.7077338 32.2053017,16.1414798 31.6153198,16.1461006 L30.2353621,16.1569085 L30.2293316,15.3869321 L30.4193258,15.385444 C30.5993203,15.3840343 30.7483759,15.2628632 30.7471228,15.1028681 L30.7330255,13.3029233 L30.1741392,13.4473048 L30.1681087,12.6773285 L30.7270734,12.5429466 L30.7014634,9.27304693 L30.1414806,9.27743273 L30.1354501,8.50745634 L30.6954329,8.50307054 L30.6808658,6.64312759 Z M39.5137527,8.25399966 L39.5673222,15.0937899 C39.5713947,15.6137739 39.1247762,16.0472851 38.5647934,16.0516709 L33.6549439,16.090125 L33.5939343,8.30036387 L35.7038696,8.28383879 L35.6907905,6.61389 L37.3807387,6.60065428 L37.3938177,8.27060306 L39.5137527,8.25399966 Z M46.4065264,7.69830318 L46.8243809,7.65590497 L47.3416023,8.88999656 L47.7931602,6.70324202 L46.6092391,6.82337029 L46.4065264,7.69830318 Z M42.2617201,8.0585539 L40.7693825,8.20997609 L40.3128524,6.28623489 L41.795241,6.13582218 L42.2617201,8.0585539 Z M40.799667,8.5084436 L42.2920045,8.3570214 L42.3131049,11.2396165 L40.8307163,11.3900293 L40.799667,8.5084436 Z M44.6411514,11.0033979 L42.8105507,11.1891425 L42.2755257,5.91621653 L44.1061264,5.73047197 L44.6411514,11.0033979 Z M45.8370169,9.51507474 L45.2968692,8.25315536 L44.5606494,8.32785697 L45.2005072,5.61942903 L46.9415677,5.4427698 L46.8208912,5.937479 L49.7458728,5.6406915 L48.9100886,9.78623909 C48.8062815,10.2490826 48.4674465,10.574952 48.0296942,10.6193691 L45.2439975,10.9020239 L45.1581915,10.056366 L46.7898139,9.89081104 C47.0086901,9.86860245 47.1825773,9.70018855 47.2200622,9.47525549 L47.2398141,9.37273788 L45.8370169,9.51507474 Z M40.9789641,12.7520214 L40.9022435,11.9959037 L44.314722,11.6496516 L44.2692954,11.2019504 L46.8162181,10.9435232 L46.8616448,11.3912244 L50.2840722,11.0439629 L50.3607928,11.8000805 L47.5949939,12.0807163 L50.2523995,13.9017587 L50.5707649,13.8694553 L50.6394096,14.5459816 L48.1621293,14.7973424 L45.7557573,13.1719582 L43.7448102,15.2455521 L41.257581,15.4979225 L41.1889362,14.8213961 L41.5172505,14.7880832 L43.7348141,12.4723951 L40.9789641,12.7520214 Z" id="path-12"></path>
        <filter x="-2.3%" y="-13.8%" width="104.7%" height="118.4%" filterUnits="objectBoundingBox" id="filter-13">
            <feOffset dx="0" dy="-0.5" in="SourceAlpha" result="shadowOffsetOuter1"></feOffset>
            <feGaussianBlur stdDeviation="0.25" in="shadowOffsetOuter1" result="shadowBlurOuter1"></feGaussianBlur>
            <feColorMatrix values="0 0 0 0 0   0 0 0 0 0   0 0 0 0 0  0 0 0 0.1 0" type="matrix" in="shadowBlurOuter1"></feColorMatrix>
        </filter>
    </defs>
    <g id="FFFinal" stroke="none" stroke-width="1" fill="none" fill-rule="evenodd">
        <g id="Ai_网络推广会_获得抽奖机会_关闭弹窗" transform="translate(-294.000000, -532.000000)">
            <g id="奖励" transform="translate(290.000000, 527.000000)">
                <path d="M40.0259167,40.7549806 L40.0230838,40.7464343 L40,41.0506665 L39.9769162,40.7464343 L39.9740833,40.7549806 L38.1502373,79.9977371 L31.9671845,79.2385537 L39.206704,43.1363268 L28.0326804,78.2317061 L22.2568013,75.8980994 L39.7038496,40.6571476 L39.729605,40.5287102 L19.0128913,74.1231023 L13.973131,70.4615021 L39.5046589,40.3973058 L39.3893998,40.4620895 L11.2791079,67.9311897 L7.27487129,63.1591263 L37.1611196,41.7145391 L5.09967869,59.7353146 L2.466984,54.0894826 L39.121177,40.2675488 L38.9936031,40.2985559 L39.2723179,40.1840247 L39.215959,40.1843582 L1.32376775,50.5782426 L0.135125717,44.4632094 L36.6443634,40.1995753 L-0.121338961,40.4171317 L0.313208041,34.20282 L39.1934381,39.9018884 L39.3156495,39.8876163 L1.00238452,30.5754991 L2.92740167,24.6509055 L39.4118642,39.6433209 L39.3219383,39.560453 L4.50631377,21.3120894 L7.8074386,16.0291853 L37.4472171,37.8328735 L10.3975998,12.9063057 L14.9535577,8.65780622 L39.46087,39.2906805 L39.5434995,39.3499705 L39.3780125,39.0816154 L39.42461,39.1364855 L17.9465367,6.48774055 L23.3949682,3.46762564 L38.7572693,36.9276943 L27.1709684,1.97385966 L33.2154124,0.46681051 L39.8140503,39.2294306 L39.8712687,39.3540558 L36.8852568,0 L43.1147432,0 L40.1287313,39.3540558 L40.1859497,39.2294306 L46.7845876,0.46681051 L52.8290316,1.97385966 L41.2427307,36.9276943 L56.6050318,3.46762564 L62.0534633,6.48774055 L40.57539,39.1364855 L40.6219875,39.0816154 L40.4565005,39.3499705 L40.53913,39.2906805 L65.0464423,8.65780622 L69.6024002,12.9063057 L42.5527829,37.8328735 L72.1925614,16.0291853 L75.4936862,21.3120894 L40.6780617,39.560453 L40.5881358,39.6433209 L77.0725983,24.6509055 L78.9976155,30.5754991 L40.6843505,39.8876163 L40.8065619,39.9018884 L79.686792,34.20282 L80.121339,40.4171317 L43.3556366,40.1995753 L79.8648743,44.4632094 L78.6762322,50.5782426 L40.784041,40.1843582 L40.7276821,40.1840247 L41.0063969,40.2985559 L40.878823,40.2675488 L77.533016,54.0894826 L74.9003213,59.7353146 L42.8388804,41.7145391 L72.7251287,63.1591263 L68.7208921,67.9311897 L40.6106002,40.4620895 L40.4953411,40.3973058 L66.026869,70.4615021 L60.9871087,74.1231023 L40.270395,40.5287102 L40.2961504,40.6571476 L57.7431987,75.8980994 L51.9673196,78.2317061 L40.793296,43.1363268 L48.0328155,79.2385537 L41.8497627,79.9977371 L40.0259167,40.7549806 Z" id="Combined-Shape" fill="url(#radialGradient-1)"></path>
                <g id="con" transform="translate(2.600000, 15.200000)">
                    <path d="M58.5191752,15.5967339 C58.5273283,15.6147901 58.5354555,15.6328526 58.5435568,15.6509213 C59.2569287,15.4630831 60.0354394,15.7657261 60.4220265,16.4362161 C60.8852446,17.2396136 60.6103504,18.2669139 59.8080331,18.7307557 L54.9656201,21.5302882 C54.1633028,21.99413 53.8884086,23.0214303 54.3516267,23.8248278 C54.8148448,24.6282252 55.8407639,24.9034895 56.6430812,24.4396478 L62.4539768,21.0802087 C63.256294,20.616367 64.2822131,20.8916313 64.7454312,21.6950287 C65.2086493,22.4984262 64.9337551,23.5257266 64.1314379,23.9895683 L60.4569705,26.1138793 L60.4559354,26.1311315 C61.2219251,25.8132786 62.1231684,26.1055255 62.5489619,26.8440144 C63.01218,27.6474118 62.7372858,28.6747122 61.9349685,29.1385539 L45.4707643,38.6569646 C44.668447,39.1208063 44.3935528,40.1481066 44.8567709,40.9515041 C45.319989,41.7549016 46.3459081,42.0301659 47.1482254,41.5663241 L57.8410929,35.3844824 C55.940345,38.9423927 53.0564004,42.0297912 49.3099277,44.1957304 C38.8351704,50.2514766 25.5019518,46.858705 19.1527825,36.6582589 C19.1110483,36.6030094 19.0722625,36.544566 19.0367787,36.4830235 C19.016606,36.4480362 18.9978331,36.4126243 18.9804426,36.3768528 C18.9049822,36.2516086 18.8305628,36.1253661 18.7572019,35.9981302 C17.9912377,34.6696552 17.37664,33.2952639 16.9080503,31.8949809 L22.815724,28.4795918 C23.6180413,28.0157501 23.8929355,26.9884497 23.4297174,26.1850522 C22.9664993,25.3816548 21.9405802,25.1063905 21.1382629,25.5702322 L16.0626542,28.5045817 L16.0590851,28.4831846 C15.301579,28.7758338 14.4231058,28.4811486 14.0043955,27.7549448 C13.5411774,26.9515473 13.8160716,25.9242469 14.6183888,25.4604052 L21.3977671,21.5410596 C22.2000843,21.0772179 22.4749785,20.0499176 22.0117604,19.2465201 C21.5485423,18.4431226 20.5226233,18.1678583 19.720306,18.6317001 L14.877893,21.4312326 C14.0755757,21.8950744 13.0496566,21.6198101 12.5864385,20.8164126 C12.1232205,20.0130151 12.3981146,18.9857148 13.2004319,18.5218731 L17.5567153,16.0033855 C19.3899355,11.6958748 22.5824132,7.92569608 26.9437801,5.40426956 C37.3165873,-0.592536444 50.4924842,2.67614686 56.9135615,12.6458374 L55.4846284,13.4719431 C54.6823111,13.9357848 54.4074169,14.9630851 54.870635,15.7664826 C55.3338531,16.5698801 56.3597722,16.8451444 57.1620894,16.3813026 L58.5191752,15.5967339 Z M7.83901063,29.3797508 L8.80749323,28.8198443 C9.60981049,28.3560025 10.6357296,28.6312668 11.0989477,29.4346643 C11.5621658,30.2380617 11.2872716,31.2653621 10.4849543,31.7292038 L9.51647171,32.2891103 C8.71415445,32.7529521 7.68823535,32.4776878 7.22501726,31.6742903 C6.76179918,30.8708929 7.03669337,29.8435925 7.83901063,29.3797508 Z M68.0053683,21.7499423 L68.9738509,21.1900357 C69.7761681,20.726194 70.8020872,21.0014583 71.2653053,21.8048558 C71.7285234,22.6082532 71.4536292,23.6355536 70.6513119,24.0993953 L69.6828293,24.6593018 C68.8805121,25.1231436 67.854593,24.8478793 67.3913749,24.0444818 C66.9281568,23.2410843 67.203051,22.213784 68.0053683,21.7499423 Z" id="Combined-Shape" fill-opacity="0.2" fill="#FFE856"></path>
                    <g id="Group-6" transform="translate(0.400000, 27.800000)">
                        <path d="M3.22058816,1.80777692 L15.2374125,1.32591898 L15.928819,16.5373083 L3.91060644,17.0192219 C3.35876517,17.0413499 2.89347108,16.6119325 2.87134301,16.0600913 C2.86688107,15.9488171 2.88103741,15.8375792 2.91322764,15.7309695 L4.70352182,9.80175581 C4.76844712,9.58673197 4.75909166,9.35611141 4.67696285,9.14705303 L2.32990114,3.1726214 C2.12795963,2.65858048 2.38096619,2.07816203 2.89500711,1.87622052 C2.99895098,1.83538606 3.10900071,1.81225142 3.22058816,1.80777692 Z" id="Rectangle-3" fill="#F85D5D" transform="translate(9.081482, 9.173351) rotate(10.000000) translate(-9.081482, -9.173351) "></path>
                        <path d="M58.8529101,1.32297437 L70.7686947,1.81101769 C71.3205168,1.83361906 71.749535,2.29928129 71.7269336,2.85110338 C71.7213715,2.98690461 71.6881845,3.12014667 71.6293997,3.24269156 L68.8253916,9.08802217 C68.7057753,9.33737837 68.6947678,9.62513788 68.7949855,9.88290326 L71.0412841,15.6605081 C71.2414152,16.1752566 70.9863675,16.754781 70.471619,16.9549121 C70.3432455,17.004823 70.2059455,17.0276765 70.0683261,17.0220399 L58.1615036,16.5343637 L58.8529101,1.32297437 Z" id="Rectangle-3-Copy" fill="#F85D5D" transform="translate(64.961380, 9.173452) rotate(-10.000000) translate(-64.961380, -9.173452) "></path>
                        <path d="M9.91743119,3.71503288 L16.5229358,2.60052302 L14.8715596,18.617648 L9.75141812,18.9207683 C9.20009866,18.9534072 8.72670683,18.5329336 8.69406786,17.9816142 C8.6912021,17.9332074 8.69186112,17.8846562 8.69603969,17.836345 L9.91743119,3.71503288 Z" id="Rectangle-4" fill="#F33430"></path>
                        <path d="M58.6506293,3.71503288 L65.2681999,2.60052302 L63.947099,18.617648 L59.9201546,18.8555918 C58.8175083,18.9207449 57.8708198,18.0796905 57.8056667,16.9770442 C57.800797,16.8946295 57.801035,16.8119923 57.8063793,16.729607 L58.6506293,3.71503288 Z" id="Rectangle-4-Copy" fill="#F33430" transform="translate(61.531737, 10.729943) scale(-1, 1) translate(-61.531737, -10.729943) "></path>
                    </g>
                    <g id="Oval-4">
                        <use fill="black" fill-opacity="1" filter="url(#filter-5)" xlink:href="#path-4"></use>
                        <use fill="url(#linearGradient-2)" fill-rule="evenodd" xlink:href="#path-4"></use>
                        <circle stroke="url(#linearGradient-3)" stroke-width="8" cx="37" cy="25" r="19"></circle>
                        <circle stroke="url(#linearGradient-2)" stroke-width="6" cx="37" cy="25" r="20"></circle>
                    </g>
                    <g id="Fill-1">
                        <use fill="black" fill-opacity="1" filter="url(#filter-8)" xlink:href="#path-7"></use>
                        <use fill="url(#linearGradient-6)" fill-rule="evenodd" xlink:href="#path-7"></use>
                    </g>
                    <g id="Star-+-Star-Mask" transform="translate(55.777011, 0.000000)">
                        <mask id="mask-10" fill="white">
                            <use xlink:href="#path-9"></use>
                        </mask>
                        <use id="Mask" fill="#F6CC00" xlink:href="#path-9"></use>
                        <polygon id="Star" fill="#FDD511" mask="url(#mask-10)" points="1.95402299 2.06666667 0.572320083 3.3600197 1.07471264 1.96825397 0.572320083 0.57648824 1.95402299 1.08253968 3.33572589 0.57648824 2.83333333 1.96825397 3.33572589 3.3600197"></polygon>
                        <polygon id="Star" fill="#FFE049" mask="url(#mask-10)" points="1.95402299 2.06666667 0.572320083 3.3600197 1.85632184 1.96825397 0.572320083 0.57648824 1.95402299 1.86984127 3.33572589 0.57648824 2.05172414 1.96825397 3.33572589 3.3600197"></polygon>
                    </g>
                    <polygon id="Star-Copy-2" fill="#FFDC31" points="14.3517241 10.7663492 13.5227024 11.0699801 13.8241379 10.2349206 13.5227024 9.3998612 14.3517241 9.70349206 15.1807459 9.3998612 14.8793103 10.2349206 15.1807459 11.0699801"></polygon>
                    <polygon id="Star-Copy" fill="#FFDC31" transform="translate(58.607216, 9.936531) rotate(46.000000) translate(-58.607216, -9.936531) " points="58.6072162 10.4679597 57.7781945 10.7715906 58.07963 9.93653117 57.7781945 9.10147174 58.6072162 9.4051026 59.436238 9.10147174 59.1348025 9.93653117 59.436238 10.7715906"></polygon>
                </g>
                <g id="Group-2" filter="url(#filter-11)" transform="translate(11.000000, 46.000000)">
                    <path d="M1.87772133,0.910560928 C11.1254278,3.06563203 20.1529507,4.14316758 28.9602901,4.14316758 C37.7676296,4.14316758 46.9052443,3.06563203 56.3731342,0.910560928 L57.5348176,13.8960299 C57.6259206,14.9143889 56.9342822,15.837489 55.9313375,16.036126 C46.2557331,17.952416 37.265384,18.9105609 28.9602901,18.9105609 C20.6666137,18.9105609 11.6895647,17.9550486 2.02914331,16.0440238 L2.02914585,16.044011 C1.0093476,15.8422745 0.314134485,14.8929004 0.429664107,13.8597794 L1.87772133,0.910560928 Z" id="Rectangle" fill="#F87878"></path>
                    <g id="立即抽奖">
                        <use fill="black" fill-opacity="1" filter="url(#filter-13)" xlink:href="#path-12"></use>
                        <use fill="#FFE257" fill-rule="evenodd" xlink:href="#path-12"></use>
                    </g>
                </g>
                <polygon id="Star-Copy" fill="#FFF196" transform="translate(75.200000, 56.000000) rotate(46.000000) translate(-75.200000, -56.000000) " points="75.2 56.5091169 74.4 56.8 74.6908831 56 74.4 55.2 75.2 55.4908831 76 55.2 75.7091169 56 76 56.8"></polygon>
            </g>
        </g>
    </g>
</svg>