<?xml version="1.0" encoding="UTF-8" standalone="no"?>
<svg width="160px" height="184px" viewBox="0 0 160 184" version="1.1" xmlns="http://www.w3.org/2000/svg" xmlns:xlink="http://www.w3.org/1999/xlink">
    <!-- Generator: Sketch 49 (51002) - http://www.bohemiancoding.com/sketch -->
    <title>徽章</title>
    <desc>Created with Sketch.</desc>
    <defs>
        <path d="M86.0350037,2.41478675 L154.035004,41.9808872 C157.728078,44.1297186 160,48.0801678 160,52.3529038 L160,131.647096 C160,135.919832 157.728078,139.870281 154.035004,142.019113 L86.0350037,181.585213 C82.304441,183.755858 77.695559,183.755858 73.9649963,181.585213 L5.96499627,142.019113 C2.27192219,139.870281 -6.58216811e-15,135.919832 -7.10542736e-15,131.647096 L-7.10542736e-15,52.3529038 C-1.93625875e-15,48.0801678 2.27192219,44.1297186 5.96499627,41.9808872 L73.9649963,2.41478675 C77.695559,0.244142329 82.304441,0.244142329 86.0350037,2.41478675 Z" id="path-1"></path>
        <path d="M83.5204188,6.73646037 C81.3442572,5.47025112 78.6557428,5.47025112 76.4795812,6.73646037 L8.47958116,46.3025608 C6.32528795,47.5560458 5,49.8604745 5,52.3529038 L5,131.647096 C5,134.139525 6.32528795,136.443954 8.47958116,137.697439 L76.4795812,177.26354 C78.6557428,178.529749 81.3442572,178.529749 83.5204188,177.26354 L151.520419,137.697439 C153.674712,136.443954 155,134.139525 155,131.647096 L155,52.3529038 C155,49.8604745 153.674712,47.5560458 151.520419,46.3025608 L83.5204188,6.73646037 Z" id="path-2"></path>
        <radialGradient cx="50%" cy="50%" fx="50%" fy="50%" r="50.0127974%" gradientTransform="translate(0.500000,0.500000),scale(0.997700,1.000000),rotate(91.296187),translate(-0.500000,-0.500000)" id="radialGradient-4">
            <stop stop-color="#2D403A" stop-opacity="0" offset="0%"></stop>
            <stop stop-color="#2E403D" stop-opacity="0" offset="20.8724711%"></stop>
            <stop stop-color="#384456" offset="100%"></stop>
        </radialGradient>
        <linearGradient x1="50%" y1="0%" x2="50%" y2="100%" id="linearGradient-5">
            <stop stop-color="#69798F" offset="0%"></stop>
            <stop stop-color="#384456" offset="100%"></stop>
        </linearGradient>
    </defs>
    <g id="勋章" stroke="none" stroke-width="1" fill="none" fill-rule="evenodd">
        <g id="风一样的选手" transform="translate(-108.000000, -286.000000)">
            <g id="contents" transform="translate(10.000000, 53.000000)">
                <g id="徽章" transform="translate(98.000000, 233.000000)">
                    <g id="Mask">
                        <use fill="#EEF6FF" fill-rule="evenodd" xlink:href="#path-1"></use>
                        <path stroke="#384456" stroke-width="4" d="M85.0291698,4.1434562 C81.9203675,2.33458585 78.0796325,2.33458585 74.9708302,4.1434562 L6.97083023,43.7095566 C3.8932685,45.5002495 2,48.7922905 2,52.3529038 L2,131.647096 C2,135.207709 3.8932685,138.499751 6.97083023,140.290443 L74.9708302,179.856544 C78.0796325,181.665414 81.9203675,181.665414 85.0291698,179.856544 L153.02917,140.290443 C156.106732,138.499751 158,135.207709 158,131.647096 L158,52.3529038 C158,48.7922905 156.106732,45.5002495 153.02917,43.7095566 L85.0291698,4.1434562 Z"></path>
                    </g>
                    <mask id="mask-3" fill="white">
                        <use xlink:href="#path-2"></use>
                    </mask>
                    <use id="Mask" fill="#384456" fill-rule="nonzero" opacity="0.0399370336" xlink:href="#path-2"></use>
                    <path d="M77.1991244,84.7384831 L51.283585,6.52512706 L64.8052741,3.15379132 L79.5904487,89.9453283 L79.7057515,90.1963874 L73.0321815,2.10526316 L86.9678185,2.10526316 L80.2942485,90.1963874 L80.4095513,89.9453283 L95.1947259,3.15379132 L108.716415,6.52512706 L82.8008756,84.7384831 L117.180867,9.87984055 L129.36925,16.6359715 L81.0041257,90.1744194 L81.4334533,89.6687521 L81.0852047,90.2333267 L136.07878,21.5107304 L146.270659,31.014812 L85.6998611,86.8447193 L152.076841,38.0283205 L159.461603,49.846411 L81.4868169,90.7280075 L81.2836759,90.9152485 L163.001067,57.3466518 L167.307416,70.6002303 L81.4655315,91.4749425 L81.7399335,91.5070204 L168.852461,78.7484972 L169.824561,92.6501877 L87.4308974,92.1723013 L169.249699,101.737023 L166.590654,115.416623 L81.7057885,92.1432873 L82.3193762,92.3953424 L81.6748191,92.2386013 L164.027841,123.304149 L158.138387,135.934125 L86.3235835,95.5802631 L153.262352,143.623425 L144.304698,154.298743 L81.3284547,92.773422 L81.0876039,92.6380842 L138.265299,159.982675 L126.991132,168.173837 L80.6114998,92.983994 L80.6657867,93.2548785 L119.719115,172.161214 L106.798217,177.381596 L81.7916715,98.8728899 L97.9784805,179.642856 L84.1467176,181.341183 L80.0501095,93.4190219 L80,94.0804678 L79.9498905,93.4190219 L75.8532824,181.341183 L62.0215195,179.642856 L78.2083285,98.8728899 L53.201783,177.381596 L40.2808853,172.161214 L79.3342133,93.2548785 L79.3885002,92.983994 L33.0088681,168.173837 L21.7347009,159.982675 L78.9123961,92.6380842 L78.6715453,92.773422 L15.6953024,154.298743 L6.73764752,143.623425 L73.6764165,95.5802631 L1.86161333,135.934125 L-4.02784138,123.304149 L78.3251809,92.2386013 L77.6806238,92.3953424 L78.2942115,92.1432873 L-6.5906538,115.416623 L-9.24969871,101.737023 L72.5691026,92.1723013 L-9.8245614,92.6501877 L-8.8524605,78.7484972 L78.2600665,91.5070204 L78.5344685,91.4749425 L-7.30741585,70.6002303 L-3.00106717,57.3466518 L78.7163241,90.9152485 L78.5131831,90.7280075 L0.538396565,49.846411 L7.92315911,38.0283205 L74.3001389,86.8447193 L13.7293407,31.014812 L23.9212204,21.5107304 L78.9147953,90.2333267 L78.5665467,89.6687521 L78.9958743,90.1744194 L30.6307504,16.6359715 L42.8191333,9.87984055 L77.1991244,84.7384831 Z" id="Combined-Shape" fill="url(#radialGradient-4)" opacity="0.1" mask="url(#mask-3)"></path>
                    <path d="M5.00000279,122 C29.7368503,118 54.7368531,116 80.000011,116 C105.263169,116 130.263166,118 155.000003,122 L155.000003,132.670395 C155.000003,134.80144 153.869649,136.772578 152.030381,137.84889 L83.0303892,178.226667 C81.158605,179.322008 78.8414169,179.322008 76.9696325,178.226668 L7.96962467,137.84889 C6.13035698,136.772578 5.00000279,134.80144 5.00000279,132.670395 L5.00000279,122 Z M65.2631489,160.350877 L67.3255533,161.435147 L66.9316691,159.138626 L68.6001893,157.512221 L66.2943511,157.177163 L65.2631489,155.087719 L64.2319467,157.177163 L61.9261085,157.512221 L63.5946287,159.138626 L63.2007445,161.435147 L65.2631489,160.350877 Z M94.7368449,160.350877 L96.7992493,161.435147 L96.4053651,159.138626 L98.0738853,157.512221 L95.7680471,157.177163 L94.7368449,155.087719 L93.7056427,157.177163 L91.3998045,157.512221 L93.0683247,159.138626 L92.6744405,161.435147 L94.7368449,160.350877 Z M80.0000028,162.105263 L83.2998498,163.840095 L82.6696351,160.165662 L85.3392674,157.563413 L81.6499263,157.027321 L80.0000028,153.684211 L78.3500793,157.027321 L74.6607381,157.563413 L77.3303705,160.165662 L76.7001558,163.840095 L80.0000028,162.105263 Z" id="Combined-Shape" fill="#384456" mask="url(#mask-3)"></path>
                    <g id="wind" mask="url(#mask-3)">
                        <g transform="translate(75.000000, 79.000000) rotate(3.000000) translate(-75.000000, -79.000000) translate(38.000000, 41.000000)">
                            <path d="M46.4307333,75.0696619 C47.1174,76.1591587 41.7754,76.0047071 43.0714,75.0647587 C42.4994,74.9627716 40.9427333,74.4994168 42.2287333,73.9767329 C41.4587333,73.8311071 40.9740667,73.6207587 40.9740667,73.3863845 C40.9740667,73.226049 41.2007333,73.0774813 41.5880667,72.9529394 C40.8807333,72.8087845 40.4414,72.6067716 40.4414,72.3836748 C40.4414,72.3032619 40.4974,72.2267716 40.6027333,72.1546942 C40.2400667,72.0355458 40.0314,71.8958039 40.0314,71.7462555 C40.0314,71.6261265 40.1654,71.5128619 40.4034,71.4108748 C40.0087333,71.2878039 39.7787333,71.1411974 39.7787333,70.9847845 C39.7787333,70.8465135 39.9580667,70.7165781 40.2707333,70.6033135 C39.9700667,70.4920103 39.7980667,70.3645265 39.7980667,70.2287071 C39.7980667,70.0149265 40.2214,69.82272 40.9094,69.6800361 C40.8060667,69.6064877 40.7514,69.5290168 40.7514,69.4495845 C40.7514,69.2338426 41.1560667,69.0357523 41.8227333,68.8852232 C41.5034,68.7660748 41.3227333,68.6297652 41.3227333,68.48512 C41.3227333,68.2835974 41.6720667,68.0992361 42.2574,67.9526297 C41.7467333,67.8079845 41.4454,67.6314684 41.4454,67.4397523 C41.4454,67.2455845 41.7560667,67.0661265 42.2854,66.9190297 C42.0034,66.8013523 41.8460667,66.6704361 41.8460667,66.5321652 C41.8460667,66.4203716 41.9474,66.3144619 42.1367333,66.2144361 C41.2514,66.0433135 40.7014,65.8045265 40.7014,65.5392619 C40.7014,65.4362942 40.7860667,65.337249 40.9387333,65.2450684 C40.4060667,65.0925781 40.0927333,64.9067458 40.0927333,64.7071845 C40.0927333,64.6664877 40.1060667,64.6262813 40.1314,64.5870555 C39.4827333,64.4075974 39.1014,64.1884232 39.1014,63.9501265 C39.1014,63.7760619 39.3107333,63.6093523 39.6820667,63.4622555 C38.4094,63.2254297 37.6160667,62.8880877 37.6160667,62.5139716 C37.6160667,62.3472619 37.7740667,62.1883974 38.0600667,62.0422813 C36.1447333,61.7495587 34.9107333,61.2901265 34.9107333,60.7738168 C34.9107333,60.5845523 35.0747333,60.4041135 35.3780667,60.2359329 C35.0027333,60.0515716 34.7967333,59.850049 34.7967333,59.6392103 C34.7967333,59.3239329 35.2560667,59.0302297 36.0500667,58.7816361 C35.9447333,58.6732748 35.8900667,58.55952 35.8900667,58.4447845 C35.8900667,58.0873394 36.4140667,57.7549006 37.3180667,57.4739458 C37.2060667,57.360191 37.1474,57.2415329 37.1474,57.1204232 C37.1474,56.7379716 37.7314,56.3824877 38.7320667,56.0868232 C37.9160667,55.7872361 37.4520667,55.44352 37.4520667,55.0782297 C37.4520667,54.8046297 37.7127333,54.5432877 38.1854,54.30352 C37.2100667,53.9627458 36.6514,53.5699974 36.6514,53.149791 C36.6514,52.8021523 37.0327333,52.4726555 37.7160667,52.176991 C36.4667333,51.8058168 35.7374,51.3606039 35.7374,50.8795974 C35.7374,50.6893523 35.8527333,50.50352 36.0694,50.3270039 C33.5667333,49.8592361 32.0040667,49.1953394 32.0040667,48.4593652 C32.0040667,48.328449 32.0540667,48.2004748 32.1474,48.0749523 C30.4720667,47.6066942 29.4887333,47.0354684 29.4887333,46.4166813 C29.4887333,46.276449 29.5400667,46.139649 29.6374,46.0048103 C27.8127333,45.4762426 26.7440667,44.8373523 26.7440667,44.1474684 C26.7440667,43.9327071 26.8494,43.7233394 27.0474,43.5198555 C25.3080667,42.9535329 24.3060667,42.2881652 24.3060667,41.5752361 C24.3060667,41.3898942 24.3754,41.2074942 24.5054,41.0295071 C23.0814,40.4798555 22.2767333,39.8571458 22.2767333,39.1966813 C22.2767333,38.8166813 22.5420667,38.4489394 23.0407333,38.1008103 C22.1287333,37.6438297 21.6274,37.1456619 21.6274,36.6254297 C21.6274,35.8639587 22.6974,35.1520103 24.5540667,34.5459716 C24.0880667,34.2086297 23.8394,33.8531458 23.8394,33.4854039 C23.8394,33.0794168 24.1434,32.6866684 24.7114,32.3174555 C24.1380667,31.9335329 23.8287333,31.5295071 23.8287333,31.109791 C23.8287333,30.6057394 24.2727333,30.1232619 25.0854,29.6751071 C24.4800667,29.3799329 24.0380667,29.0671071 23.7820667,28.7439845 C20.5540667,27.9398555 18.6247333,26.9219458 18.6247333,25.8138168 C18.6247333,25.7285006 18.6360667,25.6441652 18.6600667,25.5593394 C16.7894,24.8694555 15.7267333,24.0800361 15.7267333,23.2425652 C15.7267333,23.0268232 15.7980667,22.8159845 15.9327333,22.6075974 C12.8187333,21.7441394 10.9507333,20.6909265 10.8547333,19.5528877 C8.71006667,18.7320877 7.4974,17.7999845 7.4974,16.8129652 C7.4974,16.6462555 7.53273333,16.4824877 7.60006667,16.3197006 C3.97406667,15.2503071 1.8574,13.96272 1.8574,12.5760877 C1.8574,12.1093006 2.09873333,11.6528103 2.55606667,11.2120103 C1.5854,10.7466942 1.06206667,10.2544103 1.06206667,9.74300387 C1.06206667,6.93296516 16.8260667,4.65541677 36.2720667,4.65541677 C55.7180667,4.65541677 71.4820667,6.93296516 71.4820667,9.74300387 C71.4820667,10.389249 70.6467333,11.0060748 69.1274,11.5743587 C69.3734,11.9009135 69.5007333,12.2358039 69.5007333,12.5760877 C69.5007333,13.550849 68.4514,14.4790297 66.5647333,15.31552 C67.1887333,15.7935845 67.5207333,16.2946942 67.5207333,16.8124748 C67.5207333,17.6067974 66.7340667,18.3648361 65.3107333,19.0586426 C65.3600667,19.190049 65.3860667,19.3239071 65.3860667,19.4597265 C65.3860667,20.1726555 64.6907333,20.8532232 63.4287333,21.4759329 C64.4954,22.0241135 65.0820667,22.6188748 65.0820667,23.2420748 C65.0820667,23.5750039 64.9120667,23.902049 64.5920667,24.2163458 C65.5007333,24.7145135 65.9947333,25.2523974 65.9947333,25.8133265 C65.9947333,26.1977394 65.7614,26.5713652 65.3234,26.92832 C65.8467333,27.2950813 66.1260667,27.6819458 66.1260667,28.082049 C66.1260667,28.586591 65.6820667,29.0695587 64.8694,29.5172232 C65.8747333,30.0085265 66.4320667,30.5454297 66.4320667,31.1088103 C66.4320667,31.8050684 65.5827333,32.462591 64.0807333,33.0416619 C64.1620667,33.1872877 64.2047333,33.3353652 64.2047333,33.4849135 C64.2047333,34.2463845 63.1354,34.9583329 61.2774,35.5648619 C61.7440667,35.9017135 61.9940667,36.2571974 61.9940667,36.6249394 C61.9940667,37.0049394 61.7274,37.3726813 61.2300667,37.7213006 C62.1407333,38.177791 62.6414,38.6759587 62.6414,39.196191 C62.6414,39.6884748 62.1940667,40.1591845 61.3780667,40.5941006 C61.8034,40.9069265 62.0314,41.2354426 62.0314,41.5742555 C62.0314,42.2558039 61.1160667,42.8937135 59.5180667,43.4443458 C59.7654,43.6708748 59.8980667,43.9062297 59.8980667,44.1469781 C59.8980667,44.7113394 59.1840667,45.2413781 57.9254,45.7047329 C58.2187333,45.9327329 58.3734,46.1710297 58.3734,46.416191 C58.3734,46.8373781 57.9167333,47.2379716 57.0940667,47.5993394 C57.5767333,47.8670555 57.8407333,48.1563458 57.8407333,48.4593652 C57.8407333,48.8109265 57.4827333,49.1463071 56.8367333,49.4522684 C58.3734,49.8469781 59.2894,50.3426942 59.2894,50.8791071 C59.2894,51.2267458 58.9080667,51.5562426 58.2240667,51.8514168 C59.4734,52.222591 60.2034,52.6687845 60.2034,53.149791 C60.2034,53.6151071 59.5167333,54.0490426 58.3340667,54.4133523 C58.6814,54.62272 58.8694,54.8463071 58.8694,55.0782297 C58.8694,55.6896619 57.5687333,56.2402942 55.4880667,56.62912 C55.7040667,56.7850426 55.8207333,56.9507716 55.8207333,57.1204232 C55.8207333,57.5367071 55.1314,57.9201394 53.9654,58.2300232 C54.0080667,58.3001394 54.0300667,58.3722168 54.0300667,58.4447845 C54.0300667,58.9919845 52.8000667,59.4813265 50.8594,59.8118039 C50.7900667,59.9387974 50.6467333,60.0608877 50.4387333,60.1756232 C50.8127333,60.3604748 51.0207333,60.5624877 51.0207333,60.7738168 C51.0207333,61.1317523 50.4267333,61.4617394 49.4280667,61.7284748 C50.2587333,61.9471587 50.7520667,62.2183071 50.7520667,62.5139716 C50.7520667,62.8331716 50.1720667,63.1263845 49.2094,63.3534039 C49.7767333,63.5250168 50.1060667,63.7309523 50.1060667,63.9501265 C50.1060667,64.1374297 49.8700667,64.3129652 49.4540667,64.4669265 C49.5560667,64.5434168 49.6107333,64.62432 49.6107333,64.7076748 C49.6107333,64.8101523 49.5267333,64.9096877 49.3734,65.0023587 C49.9067333,65.1543587 50.2200667,65.340191 50.2200667,65.5397523 C50.2200667,65.6834168 50.0580667,65.8207071 49.7694,65.9423071 C50.4647333,66.0992103 50.8880667,66.3056361 50.8880667,66.5321652 C50.8880667,66.7263329 50.5760667,66.9072619 50.0467333,67.0528877 C50.3287333,67.1710555 50.4860667,67.3014813 50.4860667,67.4397523 C50.4860667,67.6716748 50.0427333,67.8834942 49.3140667,68.0433394 C49.7074,68.1732748 49.9354,68.3238039 49.9354,68.4856103 C49.9354,68.7018426 49.5287333,68.8994426 48.8614,69.0494813 C49.1807333,69.1696103 49.3627333,69.3054297 49.3627333,69.4500748 C49.3627333,69.7187716 48.7367333,69.958049 47.7600667,70.1154426 C47.7860667,70.1527071 47.8007333,70.1899716 47.8007333,70.2291974 C47.8007333,70.3674684 47.6227333,70.4978942 47.3087333,70.6106684 C47.6114,70.7224619 47.7827333,70.8504361 47.7827333,70.9852748 C47.7827333,71.1049135 47.6474,71.2186684 47.4100667,71.3206555 C47.8047333,71.4432361 48.0334,71.5898426 48.0334,71.7467458 C48.0334,71.8590297 47.9154,71.9664103 47.7020667,72.0630039 C47.9094,72.1610684 48.0247333,72.2704103 48.0247333,72.3841652 C48.0247333,72.544991 47.7980667,72.6935587 47.4107333,72.8181006 C48.1180667,72.9622555 48.5567333,73.1632877 48.5567333,73.3868748 C48.5567333,73.6217394 48.0740667,73.8315974 47.3034,73.9767329 C48.6074,74.5053006 46.9960667,74.9715974 46.4307333,75.0696619" id="Fill-1" fill="#384456"></path>
                            <path d="M72.8148667,8.10831742 C72.8148667,11.4072077 56.5155333,14.0809368 36.4075333,14.0809368 C16.3008667,14.0809368 0.0002,11.4067174 0.0002,8.10831742 C0.0002,6.37110452 4.5182,4.80893677 11.7322,3.71600774 C7.36486667,4.82854968 3.71753333,6.08181419 4.5182,6.59027871 C4.5182,6.59027871 4.86153333,6.36031742 6.83153333,5.59443355 C18.2255333,1.15995613 72.8148667,0.59020129 72.8148667,8.10831742" id="Fill-4" fill="#5F6E83"></path>
                            <path d="M36.4076,3.14644903 C54.2416,3.14644903 68.6996,4.97976516 68.6996,7.24064258 C68.6996,9.50053935 54.2416,11.3338555 36.4076,11.3338555 C18.5729333,11.3338555 4.1156,9.50053935 4.1156,7.24064258 C4.1156,4.97976516 18.5729333,3.14644903 36.4076,3.14644903" id="Fill-6" fill="#384456"></path>
                            <path d="M64.378,9.2872 C58.794,10.5105548 48.3606667,11.3338065 36.4073333,11.3338065 C24.456,11.3338065 14.02,10.5105548 8.43666667,9.2872 C14.02,8.06384516 24.456,7.24059355 36.4073333,7.24059355 C48.3606667,7.24059355 58.794,8.06384516 64.378,9.2872" id="Fill-8" fill="#4A576A"></path>
                            <path d="M69.1260667,9.72196903 C73.9547333,8.36328516 37.0614,16.7433884 5.04273333,9.72196903 C11.4387333,11.9053755 23.3920667,13.3753626 37.0840667,13.3753626 C50.7760667,13.3753626 62.7300667,11.9053755 69.1260667,9.72196903 M66.8160667,8.18578839 C65.9160667,8.53784 33.5880667,1.41541419 8.4374,7.67928516 C14.0200667,5.49538839 24.4560667,4.02540129 36.4080667,4.02540129 C48.3607333,4.02540129 66.9460667,5.90676903 66.8160667,8.18578839" id="Fill-10" fill="#DFDFDF"></path>
                            <path d="M39.1774667,0.980449032 C39.2574667,0.973584516 66.1788,-1.6368929 72.8248,5.26243613 C73.9261333,6.30927484 73.8728,7.65275871 73.7654667,7.62481032 C73.6948,7.60715871 73.1481333,6.50344258 72.7961333,6.05528774 C66.1808,-0.81364129 39.2648,1.05056516 39.1868,1.05693935 L39.1774667,0.980449032 Z M14.8448,27.0185394 C14.8448,27.0185394 15.8348,28.6723974 19.3034667,29.3137394 C22.7701333,29.9541006 22.8468,29.9207587 22.8468,29.9207587 C22.8468,29.9207587 14.5014667,30.7312619 14.8448,27.0185394 Z M12.6881333,20.2731716 C8.6988,19.0959071 39.0528,26.1040877 64.5654667,17.9103071 C59.5141333,20.3280877 49.9221333,22.2354426 38.8388,22.7404748 C27.7541333,23.2459974 17.9928,22.2187716 12.6881333,20.2731716 Z M18.9601333,25.0616619 C15.4601333,23.9692232 42.0548,30.3277265 64.0881333,21.59312 C59.7428,24.1173006 51.4334667,26.2301006 41.7921333,26.9704877 C32.1501333,27.7123458 23.6241333,26.8939974 18.9601333,25.0616619 Z M26.0468,28.708191 C23.2608,27.7854039 44.4214667,33.1563974 61.9528,25.7799845 C58.4968,27.9109265 51.8854667,29.6952103 44.2134667,30.3208619 C36.5401333,30.9465135 29.7581333,30.255649 26.0468,28.708191 Z M63.0048,28.674849 C65.7728,27.3612748 44.4548,35.72912 24.6528,30.9823071 C28.6788,32.5871329 35.9674667,33.3912619 44.1614667,32.8989781 C52.3554667,32.4057135 59.3754667,30.7415587 63.0048,28.674849 Z M63.0048,31.7123974 C65.7728,30.3978426 44.4548,38.7651974 24.6528,34.0183845 C28.6788,35.6232103 35.9674667,36.4273394 44.1614667,35.9365265 C52.3554667,35.4432619 59.3754667,33.7781265 63.0048,31.7123974 Z M61.5574667,34.2096103 C64.3241333,32.8945652 43.0061333,41.263391 23.2048,36.5155974 C27.2328,38.1204232 34.5194667,38.9255329 42.7148,38.4322684 C50.9074667,37.9399845 57.9288,36.2753394 61.5574667,34.2096103 Z M60.9961333,37.0559329 C63.6581333,35.8149265 43.1461333,43.6125265 24.0934667,38.3342039 C27.9688,40.04592 34.9801333,41.0461781 42.8654667,40.7735587 C50.7474667,40.5009394 57.5034667,39.0240877 60.9961333,37.0559329 Z M25.3941333,41.0069523 C22.7321333,40.0199329 43.2441333,45.8582039 62.2968,38.7617652 C58.4214667,40.8436748 51.4101333,42.5137135 43.5248,42.9937394 C35.6421333,43.4737652 28.8861333,42.6411974 25.3941333,41.0069523 Z M28.1048,43.8743587 C25.7774667,42.8873394 43.7061333,48.7261006 60.3574667,41.6291716 C56.9714667,43.7115716 50.8421333,45.3816103 43.9521333,45.8621265 C37.0601333,46.3406813 31.1574667,45.5090942 28.1048,43.8743587 Z M30.2168,46.5319071 C28.1908,45.5458684 43.8054667,51.383649 58.3088,44.2877006 C55.3588,46.3701006 50.0228,48.0391587 44.0201333,48.5196748 C38.0174667,48.9982297 32.8748,48.1666426 30.2168,46.5319071 Z M36.7608,50.12352 C35.3128,49.3341006 45.0614667,52.3182039 57.2941333,46.4372748 C51.6688,50.1460748 43.3314667,52.4094039 36.7608,50.12352 Z M37.2934667,53.058591 C35.8448,52.2691716 44.7568,55.01792 57.0641333,48.3264877 C51.4408,52.0357781 43.7508,54.8737652 37.2934667,53.058591 Z M57.5774667,50.5108748 C57.6941333,50.3206297 57.7228,50.0249652 57.5874667,50.1514684 C56.9241333,50.7673135 50.6754667,55.5572748 37.8788,55.0806813 C44.8421333,55.8230297 52.9928,54.92672 57.5774667,50.5108748 Z M37.9581333,56.8541781 C36.4908,56.0716232 45.5861333,58.8792103 58.4608,52.7771458 C52.4428,56.7590555 44.3268,58.348191 37.9581333,56.8541781 Z M37.3128,58.0255587 C37.3128,58.0255587 42.0288,58.9179458 46.7414667,58.4903845 C50.8888,58.1128361 55.2861333,55.6759329 55.8208,55.6494555 C51.0381333,58.831649 43.5021333,60.1143329 37.3128,58.0255587 Z M36.8494667,58.8100748 C36.8494667,58.8100748 42.7548,60.3462555 47.2514667,59.5862555 C51.7481333,58.8272361 53.3301333,58.1687329 53.3301333,58.1687329 C53.3301333,58.1687329 48.5654667,60.4227458 43.6888,60.1256103 C38.8128,59.8294555 37.1188,58.8654813 36.8494667,58.8100748 Z M35.8614667,59.3033394 C36.1241333,59.3234426 43.9921333,62.4330684 50.0568,60.1751329 C49.6401333,61.2126555 42.1794667,62.46592 35.8614667,59.3033394 Z M35.7228,60.020191 C37.9728,62.3301006 47.0321333,62.0712103 49.3381333,61.4622297 C46.1028,63.0856877 35.9314667,61.8437006 35.7228,60.020191 Z M38.2828,62.1060232 C41.7394667,63.4887329 46.7194667,63.0062555 50.3141333,62.2217394 C46.1701333,63.710849 39.2874667,63.3553652 38.2828,62.1060232 Z M42.9954667,75.2599071 C44.8421333,75.9419458 46.3194667,75.1848877 46.3241333,75.1829265 C45.8088,75.6806039 43.9528,75.8782039 42.9954667,75.2599071 Z M42.2881333,74.5729652 C45.0128,75.5339974 47.1948,74.4670555 47.2008,74.4646039 C46.4414667,75.1652748 43.6988,75.445249 42.2881333,74.5729652 Z M42.2214667,74.2689652 C44.9461333,75.2309781 47.1274667,74.1635458 47.1334667,74.1601135 C46.3754667,74.8622555 43.6328,75.1417394 42.2214667,74.2689652 Z M41.4128,73.4599329 C44.9501333,74.4209652 47.7821333,73.3535329 47.7894667,73.350591 C46.8028,74.0522426 43.2454667,74.3317265 41.4128,73.4599329 Z M41.7721333,73.1015071 C44.8188,74.06352 47.2588,72.9965781 47.2661333,72.9936361 C46.4161333,73.6947974 43.3501333,73.973791 41.7721333,73.1015071 Z M41.0308,72.54352 C44.5981333,73.5045523 47.4528,72.4381006 47.4614667,72.4341781 C46.4668,73.1368103 42.8781333,73.4153135 41.0308,72.54352 Z M40.8594667,72.0929135 C44.5554667,73.0529652 47.5141333,71.9865135 47.5221333,71.9835716 C46.4914667,72.6852232 42.7741333,72.9637265 40.8594667,72.0929135 Z M42.2214667,73.88112 C44.9461333,74.8426426 47.1274667,73.7757006 47.1334667,73.7727587 C46.3754667,74.47392 43.6328,74.7543845 42.2214667,73.88112 Z M40.6048,71.6143587 C44.4734667,72.5758813 47.5714667,71.5089394 47.5801333,71.5050168 C46.5008,72.207649 42.6088,72.4871329 40.6048,71.6143587 Z M40.0661333,70.994591 C44.1394667,72.0326039 47.4008,71.0269523 47.4094667,71.0245006 C46.2734667,71.7040877 42.1754667,71.9070813 40.0661333,70.994591 Z M40.3681333,70.0973006 C44.2308,71.1353135 47.3228,70.1296619 47.3321333,70.1272103 C46.2541333,70.8067974 42.3688,71.0088103 40.3681333,70.0973006 Z M41.1308,69.7123974 C45.0968,70.74992 48.2721333,69.7447587 48.2808,69.7413265 C47.1748,70.4209135 43.1841333,70.6248877 41.1308,69.7123974 Z M40.3988,70.6062555 C44.1828,71.6442684 47.2114667,70.6386168 47.2194667,70.6356748 C46.1654667,71.3157523 42.3581333,71.5187458 40.3988,70.6062555 Z M41.4688,69.2235458 C45.5461333,70.3012748 48.8081333,69.3289652 48.8181333,69.3265135 C47.6808,69.9943329 43.5801333,70.1561394 41.4688,69.2235458 Z M41.7448,68.5846555 C45.9448,69.6638555 49.3081333,68.6910555 49.3181333,68.6886039 C48.1461333,69.3569135 43.9201333,69.5182297 41.7448,68.5846555 Z M42.3021333,68.1551329 C46.2494667,69.2348232 49.4094667,68.2615329 49.4181333,68.258591 C48.3168,68.927391 44.3461333,69.0887071 42.3021333,68.1551329 Z M41.7848,67.5250684 C46.2701333,68.6042684 49.8614667,67.6314684 49.8708,67.6290168 C48.6201333,68.2973265 44.1081333,68.4586426 41.7848,67.5250684 Z M42.3934667,67.0950555 C46.5454667,68.1737652 49.8708,67.2004748 49.8794667,67.1975329 C48.7208,67.8673135 44.5441333,68.0281394 42.3934667,67.0950555 Z M49.9974667,66.644449 C45.8448,67.723649 42.5208,66.7498684 42.5108,66.7479071 C43.6694667,67.4167071 47.8474667,67.5780232 49.9974667,66.644449 Z M49.8794667,66.2585652 C45.7274667,67.3372748 42.4034667,66.3639845 42.3934667,66.3615329 C43.5521333,67.0308232 47.7288,67.1921394 49.8794667,66.2585652 Z M49.7848,65.4328619 C45.1788,66.7650684 41.4921333,65.5627974 41.4814667,65.5598555 C42.7654667,66.3855587 47.4001333,66.58512 49.7848,65.4328619 Z M49.1594667,64.8268232 C44.5528,66.1585394 40.8654667,64.95872 40.8561333,64.9552877 C42.1401333,65.7805006 46.7734667,65.9790813 49.1594667,64.8268232 Z M49.2548,64.2359845 C44.3634667,65.568191 40.4481333,64.3678813 40.4368,64.364449 C41.8001333,65.1896619 46.7221333,65.3892232 49.2548,64.2359845 Z M49.4541333,63.6627974 C43.9814667,64.9930426 39.6001333,63.7927329 39.5868,63.7893006 C41.1141333,64.6154942 46.6194667,64.8140748 49.4541333,63.6627974 Z M49.5134667,63.1695329 C44.1574667,64.5017394 39.8728,63.300449 39.8608,63.2970168 C41.3534667,64.1232103 46.7401333,64.321791 49.5134667,63.1695329 Z M29.9241333,48.7672877 C29.9241333,48.7672877 30.5448,50.0303587 33.0481333,50.6736619 C35.5501333,51.3189265 35.6081333,51.2978426 35.6081333,51.2978426 C35.6081333,51.2978426 29.4348,51.4728877 29.9241333,48.7672877 Z M68.4614667,13.6332232 C73.2814667,11.8357006 36.4514667,22.9282684 4.49013333,13.6332232 C10.8748,16.5251458 22.8068,18.4702555 36.4748,18.4702555 C50.1421333,18.4702555 62.0768,16.5251458 68.4614667,13.6332232 Z" id="Fill-12" fill="url(#linearGradient-5)"></path>
                            <path d="M16.0791333,9.32814194 C16.7584667,9.06336774 36.4078,11.3340516 59.0691333,9.0364 C55.1131333,10.2185677 30.8544667,12.4603226 16.0791333,9.32814194" id="Fill-15" fill="#DFDFDF"></path>
                            <path d="M67.9177333,46.6903303 C67.9177333,46.6903303 67.6184,48.041169 65.3304,49.1458658 C63.0417333,50.2515432 62.9817333,50.2417383 62.9817333,50.2417383 C62.9817333,50.2417383 69.0517333,49.2385368 67.9177333,46.6903303 M57.7477333,58.6587948 C57.7477333,58.6587948 57.3890667,59.6060981 55.6264,60.2126271 C53.8644,60.8201368 53.8217333,60.8078972 53.8217333,60.8078972 C53.8217333,60.8078972 58.2950667,60.5872335 57.7477333,58.6587948 M57.1461332,67.1816267 C57.1461332,67.1816267 56.747008,67.9095093 55.2473237,68.2006981 C53.7480686,68.4927588 53.7148382,68.4779592 53.7148382,68.4779592 C53.7148382,68.4779592 57.3703738,68.8090928 57.1461332,67.1816267 M37.1378606,74.2445081 C38.6452509,75.3406314 38.6896318,75.3414012 38.6896318,75.3414012 C38.6896318,75.3414012 34.4762776,73.8225034 35.563516,72.1383531 C35.563516,72.1383531 35.629546,73.1491277 37.1378606,74.2445081 Z M28.1115084,63.3315661 C29.5756631,63.6702223 29.608846,63.6568112 29.608846,63.6568112 C29.608846,63.6568112 26.0030717,63.8568879 26.2794443,62.2643375 C26.2794443,62.2643375 26.6469018,62.9937525 28.1115084,63.3315661 Z M32.5032576,73.4465129 C33.6006181,74.2444763 33.6329268,74.2450367 33.6329268,74.2450367 C33.6329268,74.2450367 30.5656601,73.139299 31.3571554,71.9132596 C31.3571554,71.9132596 31.4052244,72.6490903 32.5032576,73.4465129 Z M53.4851258,70.9557759 C53.4851258,70.9557759 53.1787586,71.4920766 52.0593386,71.689223 C50.9402265,71.8870236 50.9156981,71.8755825 50.9156981,71.8755825 C50.9156981,71.8755825 53.6308091,72.1693856 53.4851258,70.9557759 M67.9177333,32.9362916 C67.9177333,32.9362916 67.6184,34.288111 65.3304,35.3923174 C63.0417333,36.4984852 62.9817333,36.4886802 62.9817333,36.4886802 C62.9817333,36.4886802 69.0517333,35.4854787 67.9177333,32.9362916 M71.9517333,15.6587948 C71.9517333,15.6587948 71.7650667,17.5234916 68.8524,19.3087561 C65.9410667,21.094511 65.8537333,21.0905884 65.8537333,21.0905884 C65.8537333,21.0905884 73.8984,18.9601368 71.9517333,15.6587948" id="Fill-17" fill="#384456"></path>
                        </g>
                    </g>
                    <path d="M34.6768101,130.022036 L37.9003148,130.022036 L38.4375656,131.516264 L38.9916055,130.022036 L42.2318993,130.022036 L42.2318993,128.83001 L34.6768101,128.83001 L34.6768101,130.022036 Z M36.8090241,135.965373 L34.6768101,130.156348 L34.6768101,141.774397 L36.8090241,135.965373 Z M40.0828961,135.965373 L42.2318993,141.807975 L42.2318993,130.12277 L40.0828961,135.965373 Z M34.6768101,143 L31,143 L31,127.55404 L45.8919203,127.55404 L45.8919203,141.724029 L46.5466946,141.724029 L46.5466946,143 L42.2318993,143 L42.2318993,141.908709 L38.9916055,141.908709 L38.4375656,140.43127 L37.9003148,141.908709 L34.6768101,141.908709 L34.6768101,143 Z M47.6211962,135.478489 L47.6211962,134.202518 L63.5036726,134.202518 L63.5036726,135.478489 L47.6211962,135.478489 Z M65.9380902,142.966422 L64.4102833,142.966422 L64.6285414,131.314795 L66.1563484,131.314795 L65.9380902,142.966422 Z M69.6316894,131.314795 L71.1762854,131.314795 L71.3945435,142.966422 L69.8835257,142.966422 L69.6316894,131.314795 Z M64.4102833,130.341028 L64.4102833,129.048269 L66.3578174,129.048269 L66.3578174,127 L69.4470094,127 L69.4470094,129.048269 L71.3945435,129.048269 L71.3945435,130.341028 L69.4470094,130.341028 L69.4470094,142.966422 L66.3578174,142.966422 L66.3578174,130.341028 L64.4102833,130.341028 Z M71.8142707,130.794334 L71.8142707,129.501574 L72.5865687,129.501574 L72.1836306,127 L75.13851,127 L75.5750262,129.501574 L76.498426,129.501574 L76.9349423,127 L79.9233998,127 L79.5036726,129.501574 L80.2759706,129.501574 L80.2759706,130.794334 L77.8751312,130.794334 L77.8751312,134.135362 L80.0912907,134.135362 L80.0912907,135.428122 L77.8751312,135.428122 L77.8751312,138.718783 L80.2759706,138.718783 L80.2759706,139.994753 L77.8751312,139.994753 L77.8751312,142.983211 L74.2151102,142.983211 L74.2151102,139.994753 L71.8142707,139.994753 L71.8142707,138.718783 L74.2151102,138.718783 L74.2151102,135.428122 L71.9989507,135.428122 L71.9989507,134.135362 L74.2151102,134.135362 L74.2151102,130.794334 L71.8142707,130.794334 Z M85.2119622,141.16999 L85.2119622,137.006296 L84.2214061,137.006296 L84.2214061,141.623295 L84.7586569,141.623295 C84.9937041,141.623295 85.2119622,141.421826 85.2119622,141.16999 Z M84.2214061,130.844701 L84.2214061,135.730325 L85.2119622,135.730325 L85.2119622,130.844701 L84.2214061,130.844701 Z M88.6705142,133.547744 L91.7093389,133.547744 L92.5655824,139.474292 L89.5099685,139.474292 L88.6705142,133.547744 Z M89.2749213,127.050367 L92.3137461,127.050367 L92.1290661,128.208814 L97.0986359,128.208814 L97.0986359,141.018888 C97.0986359,142.059811 96.2256034,142.916055 95.1343127,142.916055 L91.8940189,142.916055 L91.8940189,141.640084 L93.3210913,141.640084 C93.6065058,141.640084 93.8247639,141.438615 93.8247639,141.186779 L93.8247639,129.484785 L91.9275971,129.484785 L91.4407135,132.52361 L88.4186779,132.52361 L89.2749213,127.050367 Z M81.3504722,142.899265 L81.3504722,129.56873 L82.3746065,129.56873 L82.9118573,127.050367 L86.0514166,127.050367 L85.5141658,129.56873 L88.0996852,129.56873 L88.0996852,141.623295 C88.0996852,142.345226 87.4616999,142.899265 86.7397692,142.899265 L81.3504722,142.899265 Z M98.7103882,127.134313 L102.689402,127.134313 L102.924449,130.089192 L98.9454355,130.089192 L98.7103882,127.134313 Z M97.9716684,132.372508 L97.9716684,130.979014 L103.159496,130.979014 L101.883526,135.696747 L103.176285,135.696747 L102.101784,141.656873 L113.887723,141.656873 L113.887723,142.916055 L98.2906611,142.916055 L99.3651626,137.543547 L98.1227702,137.543547 L99.3651626,132.372508 L97.9716684,132.372508 Z M107.121721,127.167891 L110.916055,127.167891 L110.916055,129.56873 L113.585519,129.56873 L113.585519,130.827912 L110.916055,130.827912 L110.916055,133.766002 L113.870934,133.766002 L113.870934,135.041973 L112.494229,135.041973 L112.494229,139.675761 L113.837356,139.675761 L113.837356,140.96852 L108.901364,140.96852 L108.901364,135.041973 L108.464848,135.041973 L107.356768,140.96852 L103.83106,140.96852 L104.92235,135.041973 L103.847849,135.041973 L103.847849,133.766002 L107.121721,133.766002 L107.121721,130.827912 L106.416579,130.827912 L106.299056,132.960126 L103.596013,132.960126 L103.898216,127.721931 L106.601259,127.721931 L106.500525,129.56873 L107.121721,129.56873 L107.121721,127.167891 Z M115.214061,128.897167 L115.214061,127.621196 L130.206716,127.621196 L130.206716,128.897167 L124.783841,128.897167 L124.783841,132.322141 L130.206716,132.322141 L130.206716,133.598111 L124.783841,133.598111 L124.783841,137.039874 L130.67681,137.039874 L130.67681,138.315845 L124.783841,138.315845 L124.783841,141.405037 C124.783841,142.278069 124.06191,143 123.188877,143 L118.823715,143 L118.823715,141.724029 L120.317943,141.724029 C120.586569,141.724029 120.788038,141.52256 120.788038,141.237146 L120.788038,138.315845 L114.760756,138.315845 L114.760756,137.039874 L120.788038,137.039874 L120.788038,133.598111 L115.214061,133.598111 L115.214061,132.322141 L120.788038,132.322141 L120.788038,128.897167 L115.214061,128.897167 Z" id="风一样的选手" fill="#E6EFF8" mask="url(#mask-3)"></path>
                </g>
            </g>
        </g>
    </g>
</svg>