<?xml version="1.0" encoding="UTF-8" standalone="no"?>
<svg width="160px" height="184px" viewBox="0 0 160 184" version="1.1" xmlns="http://www.w3.org/2000/svg" xmlns:xlink="http://www.w3.org/1999/xlink">
    <!-- Generator: Sketch 49 (51002) - http://www.bohemiancoding.com/sketch -->
    <title>徽章</title>
    <desc>Created with Sketch.</desc>
    <defs>
        <path d="M86.0350037,2.41478675 L154.035004,41.9808872 C157.728078,44.1297186 160,48.0801678 160,52.3529038 L160,131.647096 C160,135.919832 157.728078,139.870281 154.035004,142.019113 L86.0350037,181.585213 C82.304441,183.755858 77.695559,183.755858 73.9649963,181.585213 L5.96499627,142.019113 C2.27192219,139.870281 -6.58216811e-15,135.919832 -7.10542736e-15,131.647096 L-7.10542736e-15,52.3529038 C-1.93625875e-15,48.0801678 2.27192219,44.1297186 5.96499627,41.9808872 L73.9649963,2.41478675 C77.695559,0.244142329 82.304441,0.244142329 86.0350037,2.41478675 Z" id="path-1"></path>
        <path d="M83.5204188,6.73646037 C81.3442572,5.47025112 78.6557428,5.47025112 76.4795812,6.73646037 L8.47958116,46.3025608 C6.32528795,47.5560458 5,49.8604745 5,52.3529038 L5,131.647096 C5,134.139525 6.32528795,136.443954 8.47958116,137.697439 L76.4795812,177.26354 C78.6557428,178.529749 81.3442572,178.529749 83.5204188,177.26354 L151.520419,137.697439 C153.674712,136.443954 155,134.139525 155,131.647096 L155,52.3529038 C155,49.8604745 153.674712,47.5560458 151.520419,46.3025608 L83.5204188,6.73646037 Z" id="path-2"></path>
        <radialGradient cx="50%" cy="50%" fx="50%" fy="50%" r="50.0127974%" gradientTransform="translate(0.500000,0.500000),scale(0.997700,1.000000),rotate(91.296187),translate(-0.500000,-0.500000)" id="radialGradient-4">
            <stop stop-color="#2D403A" stop-opacity="0" offset="0%"></stop>
            <stop stop-color="#2E403D" stop-opacity="0" offset="20.8724711%"></stop>
            <stop stop-color="#384456" offset="100%"></stop>
        </radialGradient>
    </defs>
    <g id="勋章" stroke="none" stroke-width="1" fill="none" fill-rule="evenodd">
        <g id="拖拉机手" transform="translate(-108.000000, -286.000000)">
            <g id="contents" transform="translate(10.000000, 53.000000)">
                <g id="徽章" transform="translate(98.000000, 233.000000)">
                    <g id="Mask">
                        <use fill="#EEF6FF" fill-rule="evenodd" xlink:href="#path-1"></use>
                        <path stroke="#384456" stroke-width="4" d="M85.0291698,4.1434562 C81.9203675,2.33458585 78.0796325,2.33458585 74.9708302,4.1434562 L6.97083023,43.7095566 C3.8932685,45.5002495 2,48.7922905 2,52.3529038 L2,131.647096 C2,135.207709 3.8932685,138.499751 6.97083023,140.290443 L74.9708302,179.856544 C78.0796325,181.665414 81.9203675,181.665414 85.0291698,179.856544 L153.02917,140.290443 C156.106732,138.499751 158,135.207709 158,131.647096 L158,52.3529038 C158,48.7922905 156.106732,45.5002495 153.02917,43.7095566 L85.0291698,4.1434562 Z"></path>
                    </g>
                    <mask id="mask-3" fill="white">
                        <use xlink:href="#path-2"></use>
                    </mask>
                    <use id="Mask" fill="#384456" fill-rule="nonzero" opacity="0.0399370336" xlink:href="#path-2"></use>
                    <path d="M77.1991244,84.7384831 L51.283585,6.52512706 L64.8052741,3.15379132 L79.5904487,89.9453283 L79.7057515,90.1963874 L73.0321815,2.10526316 L86.9678185,2.10526316 L80.2942485,90.1963874 L80.4095513,89.9453283 L95.1947259,3.15379132 L108.716415,6.52512706 L82.8008756,84.7384831 L117.180867,9.87984055 L129.36925,16.6359715 L81.0041257,90.1744194 L81.4334533,89.6687521 L81.0852047,90.2333267 L136.07878,21.5107304 L146.270659,31.014812 L85.6998611,86.8447193 L152.076841,38.0283205 L159.461603,49.846411 L81.4868169,90.7280075 L81.2836759,90.9152485 L163.001067,57.3466518 L167.307416,70.6002303 L81.4655315,91.4749425 L81.7399335,91.5070204 L168.852461,78.7484972 L169.824561,92.6501877 L87.4308974,92.1723013 L169.249699,101.737023 L166.590654,115.416623 L81.7057885,92.1432873 L82.3193762,92.3953424 L81.6748191,92.2386013 L164.027841,123.304149 L158.138387,135.934125 L86.3235835,95.5802631 L153.262352,143.623425 L144.304698,154.298743 L81.3284547,92.773422 L81.0876039,92.6380842 L138.265299,159.982675 L126.991132,168.173837 L80.6114998,92.983994 L80.6657867,93.2548785 L119.719115,172.161214 L106.798217,177.381596 L81.7916715,98.8728899 L97.9784805,179.642856 L84.1467176,181.341183 L80.0501095,93.4190219 L80,94.0804678 L79.9498905,93.4190219 L75.8532824,181.341183 L62.0215195,179.642856 L78.2083285,98.8728899 L53.201783,177.381596 L40.2808853,172.161214 L79.3342133,93.2548785 L79.3885002,92.983994 L33.0088681,168.173837 L21.7347009,159.982675 L78.9123961,92.6380842 L78.6715453,92.773422 L15.6953024,154.298743 L6.73764752,143.623425 L73.6764165,95.5802631 L1.86161333,135.934125 L-4.02784138,123.304149 L78.3251809,92.2386013 L77.6806238,92.3953424 L78.2942115,92.1432873 L-6.5906538,115.416623 L-9.24969871,101.737023 L72.5691026,92.1723013 L-9.8245614,92.6501877 L-8.8524605,78.7484972 L78.2600665,91.5070204 L78.5344685,91.4749425 L-7.30741585,70.6002303 L-3.00106717,57.3466518 L78.7163241,90.9152485 L78.5131831,90.7280075 L0.538396565,49.846411 L7.92315911,38.0283205 L74.3001389,86.8447193 L13.7293407,31.014812 L23.9212204,21.5107304 L78.9147953,90.2333267 L78.5665467,89.6687521 L78.9958743,90.1744194 L30.6307504,16.6359715 L42.8191333,9.87984055 L77.1991244,84.7384831 Z" id="Combined-Shape" fill="url(#radialGradient-4)" opacity="0.1" mask="url(#mask-3)"></path>
                    <path d="M5,122 C29.7368476,118 54.7368503,116 80.0000082,116 C105.263166,116 130.263163,118 155,122 L155,132.670395 C155,134.80144 153.869646,136.772578 152.030379,137.84889 L83.0303865,178.226667 C81.1586022,179.322008 78.8414141,179.322008 76.9696297,178.226668 L7.96962189,137.84889 C6.13035419,136.772578 5,134.80144 5,132.670395 L5,122 Z M65.2631461,160.350877 L67.3255505,161.435147 L66.9316663,159.138626 L68.6001865,157.512221 L66.2943483,157.177163 L65.2631461,155.087719 L64.2319439,157.177163 L61.9261057,157.512221 L63.5946259,159.138626 L63.2007417,161.435147 L65.2631461,160.350877 Z M94.7368421,160.350877 L96.7992465,161.435147 L96.4053623,159.138626 L98.0738825,157.512221 L95.7680443,157.177163 L94.7368421,155.087719 L93.7056399,157.177163 L91.3998017,157.512221 L93.0683219,159.138626 L92.6744377,161.435147 L94.7368421,160.350877 Z M80,162.105263 L83.299847,163.840095 L82.6696323,160.165662 L85.3392647,157.563413 L81.6499235,157.027321 L80,153.684211 L78.3500765,157.027321 L74.6607353,157.563413 L77.3303677,160.165662 L76.700153,163.840095 L80,162.105263 Z" id="Combined-Shape" fill="#384456" mask="url(#mask-3)"></path>
                    <path d="M44.7,126.44 L48.74,126.44 L48.3,128.54 L55.46,128.54 L55.46,130.06 L47.98,130.06 L47.44,132.74 L43.42,132.74 L44.7,126.44 Z M37.72,126.44 L41.78,126.44 L41.78,130.16 L43.02,130.16 L43.02,131.7 L41.78,131.7 L41.78,137.3 L43.02,137 L43.02,138.52 L41.78,138.82 L41.78,143.54 C41.78,144.6 40.76,145.46 39.52,145.46 L36.66,145.46 L36.66,143.92 L37.06,143.92 C37.42,143.92 37.72,143.68 37.72,143.36 L37.72,139.76 L36.54,140.04 L36.54,138.5 L37.72,138.24 L37.72,131.7 L36.54,131.7 L36.54,130.16 L37.72,130.16 L37.72,126.44 Z M48.14,131.64 L51.7,131.64 L51.7,134.52 L55.46,133.46 L55.46,141.3 L52.12,141.3 L52.12,135.76 L51.7,135.9 L51.7,142.62 L48.14,142.62 L48.14,136.96 L47.7,137.1 L47.7,143.84 L55.46,143.84 L55.46,145.36 L43.98,145.36 L43.98,138.22 L43.62,138.32 L43.62,136.8 L43.98,136.7 L43.98,133.58 L47.7,133.58 L47.7,135.66 L48.14,135.54 L48.14,131.64 Z M67.0866672,145.46 L67.0866672,143.94 L78.1066672,143.94 L78.1066672,145.46 L67.0866672,145.46 Z M67.0866672,130.46 L67.0866672,128.94 L70.1466672,128.94 L70.1466672,126.7 L75.0666672,126.7 L75.0666672,128.94 L78.1066672,128.94 L78.1066672,130.46 L67.0866672,130.46 Z M73.8866672,131.78 L77.7666672,131.78 L77.1066672,142.96 L73.2466672,142.96 L73.8866672,131.78 Z M67.4266672,131.78 L71.3066672,131.78 L71.9466672,142.96 L68.0866672,142.96 L67.4266672,131.78 Z M60.5066672,126.44 L64.9866672,126.44 L64.9866672,130.16 L66.3466672,130.16 L66.3466672,131.7 L64.9866672,131.7 L64.9866672,137.3 L66.3466672,137 L66.3466672,138.52 L64.9866672,138.82 L64.9866672,143.54 C64.9866672,144.6 63.8866672,145.46 62.5066672,145.46 L59.3466672,145.46 L59.3466672,143.92 L59.7666672,143.92 C60.1666672,143.92 60.5066672,143.68 60.5066672,143.36 L60.5066672,139.76 L59.2066672,140.04 L59.2066672,138.5 L60.5066672,138.24 L60.5066672,131.7 L59.2066672,131.7 L59.2066672,130.16 L60.5066672,130.16 L60.5066672,126.44 Z M83.6933344,145.42 L81.8533344,145.42 L82.1133344,131.2 L83.9733344,131.2 L83.6933344,145.42 Z M88.2133344,131.2 L90.0533344,131.2 L90.3533344,145.42 L88.4733344,145.42 L88.2133344,131.2 Z M81.8533344,130.44 L81.8533344,128.9 L84.2333344,128.9 L84.2333344,126.44 L87.9733344,126.44 L87.9733344,128.9 L90.3533344,128.9 L90.3533344,130.44 L87.9733344,130.44 L87.9733344,145.42 L84.2333344,145.42 L84.2333344,130.44 L81.8533344,130.44 Z M90.8133344,145.46 L90.8133344,126.76 L99.9533344,126.76 L99.9533344,143.94 L100.793334,143.94 L100.793334,145.46 L95.8733344,145.46 L95.8733344,128.26 L94.8933344,128.26 L94.8933344,145.46 L90.8133344,145.46 Z M105.060002,128.7 L105.060002,127.18 L122.920002,127.18 L122.920002,128.7 L116.460002,128.7 L116.460002,132.78 L122.920002,132.78 L122.920002,134.3 L116.460002,134.3 L116.460002,138.4 L123.480002,138.4 L123.480002,139.92 L116.460002,139.92 L116.460002,143.6 C116.460002,144.64 115.600002,145.5 114.560002,145.5 L109.360002,145.5 L109.360002,143.98 L111.140002,143.98 C111.460002,143.98 111.700002,143.74 111.700002,143.4 L111.700002,139.92 L104.520002,139.92 L104.520002,138.4 L111.700002,138.4 L111.700002,134.3 L105.060002,134.3 L105.060002,132.78 L111.700002,132.78 L111.700002,128.7 L105.060002,128.7 Z" id="拖拉机手" fill="#EEF6FF" mask="url(#mask-3)"></path>
                    <path d="M56.4555689,83.4369992 C53.3210152,84.2614642 48.1285579,88.1660499 47.7192982,94.2499023 C51.9392216,89.9798911 56.9353198,87.9144212 62.7075927,88.0534927 C63.879271,89.8305936 64.5614035,91.9604057 64.5614035,94.2499023 C64.5614035,100.46516 59.5344253,105.503622 53.3333333,105.503622 C47.1322414,105.503622 42.1052632,100.46516 42.1052632,94.2499023 C42.1052632,88.0346446 47.1322414,82.9961826 53.3333333,82.9961826 C54.4167692,82.9961826 55.464364,83.1499868 56.4555689,83.4369992 Z M78.1716142,98.8988593 C78.450634,97.3918341 78.5964912,95.8379405 78.5964912,94.2499023 C78.5964912,80.2655724 67.2857902,68.929033 53.3333333,68.929033 C47.6664518,68.929033 42.4353626,70.799144 38.2208925,73.9572125 L36.4912281,70.7224503 L36.4912281,66.8747025 L49.9777821,65.2933616 C50.6935004,63.1474913 51.415625,61.5347246 52.1441559,60.4550614 C53.2369522,58.8355667 56.4501007,56.5115884 56.9245363,56.3807751 C57.2408267,56.2935663 57.709603,56.2355407 58.3308652,56.2066982 L58.3365532,52.7912472 C57.1028196,53.0714395 56.0563034,53.2040412 55.1970047,53.1890522 C53.9080566,53.1665686 52.8480098,53.0110576 52.5848079,52.1575355 C52.321606,51.3040134 53.3978552,50.0522605 54.526762,49.3225681 C55.2793666,48.8361065 56.0061163,48.4314883 56.7070113,48.1087135 C56.6555889,47.1485083 56.7809273,46.5224047 57.0830263,46.2304028 C57.5361748,45.7924 58.2843265,45.9560017 58.7808249,45.8526116 C59.2773233,45.7492214 59.2269926,45.0792296 59.9538573,45.0175702 C60.4384337,44.976464 60.9581727,45.4062058 61.5130742,46.3067957 C64.4147298,45.9986693 66.1053466,46.27889 66.5849244,47.1474579 C67.146362,48.1642827 65.9558346,49.4961474 63.0133421,51.1430519 C63.0030576,52.6108396 62.9248325,53.4890595 62.7786667,53.7777116 C62.6325009,54.0663636 62.315837,54.329523 61.8286751,54.5671897 L62.0985131,55.3522393 C63.7003616,55.1755506 64.9849718,55.2170827 65.9523436,55.4768355 C66.9197154,55.7365882 71.6535284,58.5267022 80.1537828,63.8471773 C81.3032299,63.5158293 81.9728692,63.3501553 82.1627009,63.3501553 C82.3525326,63.3501553 82.739895,63.5870271 83.3247881,64.0607708 L82.3652302,65.6451776 L83.2479131,66.2855321 L82.6106785,67.5866806 L87.5320538,70.7224503 L88.9897475,69.9228375 C93.2351059,69.9532698 96.6706919,70.044169 99.2965056,70.1955354 C101.922319,70.3469017 104.469707,70.4788504 106.938668,70.5913816 L106.927981,47.7909635 L110.530072,48.1622822 L109.04187,70.7224503 C110.461643,70.7591847 111.450417,70.8098862 112.008191,70.8745547 C112.565965,70.9392232 113.920843,71.3047223 116.072825,71.9710521 L116.069894,68.2884389 C115.926027,68.2884389 115.670926,68.2884389 115.304592,68.2884389 C114.755091,68.2884389 114.179477,67.7696147 114.179477,67.3887575 C114.179477,67.1348527 114.170457,66.204881 114.152416,64.5988423 C114.250664,63.8388312 114.498497,63.4461644 114.895914,63.4208421 C115.49204,63.3828586 118.029516,63.47918 118.780598,63.7265839 C119.53168,63.9739878 119.623723,64.6934604 119.623723,65.2548671 C119.623723,65.8162738 119.623723,66.8546036 119.623723,67.5866806 C119.623723,68.074732 119.222456,68.3187576 118.419923,68.3187576 L117.987286,68.3171395 L117.965999,72.7360879 C118.990481,73.2579213 119.759202,73.7471082 120.272161,74.2036486 C121.0416,74.8884591 122.032184,75.9280664 122.086479,76.4250885 C122.122676,76.7564365 122.10656,77.3918514 122.038131,78.3313332 L94.7176202,77.0100006 L94.7176202,78.8042536 L121.589205,80.081556 L119.623723,94.5808713 L112.953529,94.5808713 L112.953529,95.7673879 L109.04187,95.7673879 L109.04187,94.5808713 L99.2501393,94.5808713 L94.7176202,99.8767622 L78.1317969,99.8767622 C78.14925,99.5529435 78.1625224,99.2269759 78.1716142,98.8988593 Z M112.208143,102.905371 C111.087908,103.420031 109.604215,104.835586 109.473684,106.910337 C110.866077,105.403873 112.493473,104.611095 114.355874,104.532003 C114.817656,105.209212 115.087719,106.028164 115.087719,106.910337 C115.087719,109.241059 113.202602,111.130482 110.877193,111.130482 C108.551784,111.130482 106.666667,109.241059 106.666667,106.910337 C106.666667,104.579615 108.551784,102.690192 110.877193,102.690192 C111.342311,102.690192 111.789815,102.765781 112.208143,102.905371 Z M110.877193,116.757342 C105.451238,116.757342 101.052632,112.348687 101.052632,106.910337 C101.052632,101.471986 105.451238,97.0633322 110.877193,97.0633322 C116.303148,97.0633322 120.701754,101.471986 120.701754,106.910337 C120.701754,112.348687 116.303148,116.757342 110.877193,116.757342 Z M110.877193,112.537197 C113.977739,112.537197 116.491228,110.017966 116.491228,106.910337 C116.491228,103.802708 113.977739,101.283477 110.877193,101.283477 C107.776647,101.283477 105.263158,103.802708 105.263158,106.910337 C105.263158,110.017966 107.776647,112.537197 110.877193,112.537197 Z M94.5605469,80.8735748 L94.5279948,83.0379101 L108.93332,83.3737908 L108.899226,81.4998308 L94.5605469,80.8735748 Z M94.7685376,84.6906972 L94.7359855,86.8550326 L108.970326,87.0477003 L108.936232,85.1737403 L94.7685376,84.6906972 Z M67.2942078,62.1631276 C67.9304083,64.5789137 68.2794481,65.9817207 68.3413273,66.3715486 C68.434146,66.9562904 69.1882444,67.6204059 69.4142154,68.0956257 C69.5648627,68.412439 69.5850007,69.9266983 69.4746294,72.6384039 C69.9603149,72.4086727 70.4203293,72.2952615 70.8546725,72.2981703 C71.5061874,72.3025335 73.2959691,72.0294752 74.9989387,72.2994478 C76.7019083,72.5694203 77.5762315,74.2567914 78.5578521,75.7892477 C79.2122659,76.8108852 80.532527,79.7429974 82.5186354,84.5855841 L82.834581,73.246055 L86.3485933,71.3368295 L81.9022569,68.4552769 L81.2892433,69.3694609 C81.2362059,69.4485553 81.1347555,69.4792835 81.0467445,69.4429113 L80.3735487,69.1647001 L79.5288171,70.4635357 C79.4693023,70.5550439 79.3474064,70.5819287 79.2549204,70.523945 L78.6794251,70.1631409 C78.5874896,70.1055024 78.5582855,69.9850687 78.6136081,69.8917214 L80.5934007,66.5511612 C78.9727668,67.0881823 77.8256467,67.3833637 77.1520404,67.4367053 C75.2627019,67.5863185 73.8741012,67.0671457 73.2610651,66.8888398 C71.8497377,66.4783453 70.3893723,65.329216 69.8892542,64.9653066 C69.5558422,64.7227003 68.6908267,63.7886407 67.2942078,62.1631276 Z M62.6401711,56.5517862 L63.8999033,62.388048 L59.3761748,62.5438145 L57.8024792,60.3304653 L58.8609748,63.5444163 L61.1856662,63.8578229 L61.4443004,64.633334 C63.338653,64.7154329 64.5643142,64.7780007 65.1212841,64.8210373 C65.678254,64.864074 66.2121844,65.0478029 66.7230752,65.3722242 L66.183227,62.155548 L65.0600082,62.1288062 L63.8458667,56.5608136 L62.6401711,56.5517862 Z M61.8439042,49.9712651 L62.3594264,53.6294624 C62.5691875,53.1579244 62.6903155,52.5318687 62.7228104,51.7512953 C62.7553054,50.9707219 62.7028794,50.299304 62.5655325,49.7370416 L61.8439042,49.9712651 Z M57.4052563,46.6267968 C57.2529468,46.7321745 57.1852728,47.1783555 57.2022341,47.9653397 C57.7834316,47.7078197 58.1718293,47.5391353 58.3674274,47.4592864 C58.5630254,47.3794374 59.0811175,47.1954701 59.9217037,46.9073843 L58.9191852,46.9073843 C58.6080558,46.6829487 58.3801341,46.5367307 58.2354201,46.4687303 C58.0183491,46.3667297 57.6337205,46.4687303 57.4052563,46.6267968 Z M53.3333333,116.757342 C40.9311495,116.757342 30.877193,106.680418 30.877193,94.2499023 C30.877193,81.8193868 40.9311495,71.742463 53.3333333,71.742463 C65.7355172,71.742463 75.7894737,81.8193868 75.7894737,94.2499023 C75.7894737,106.680418 65.7355172,116.757342 53.3333333,116.757342 Z M53.3333333,108.317052 C61.0846982,108.317052 67.3684211,102.018975 67.3684211,94.2499023 C67.3684211,86.4808301 61.0846982,80.1827527 53.3333333,80.1827527 C45.5819684,80.1827527 39.2982456,86.4808301 39.2982456,94.2499023 C39.2982456,102.018975 45.5819684,108.317052 53.3333333,108.317052 Z" id="Combined-Shape" fill="#384456" mask="url(#mask-3)"></path>
                </g>
            </g>
        </g>
    </g>
</svg>