<?xml version="1.0" encoding="UTF-8" standalone="no"?>
<svg width="160px" height="184px" viewBox="0 0 160 184" version="1.1" xmlns="http://www.w3.org/2000/svg" xmlns:xlink="http://www.w3.org/1999/xlink">
    <!-- Generator: Sketch 49 (51002) - http://www.bohemiancoding.com/sketch -->
    <title>徽章</title>
    <desc>Created with Sketch.</desc>
    <defs>
        <path d="M86.0350037,2.41478675 L154.035004,41.9808872 C157.728078,44.1297186 160,48.0801678 160,52.3529038 L160,131.647096 C160,135.919832 157.728078,139.870281 154.035004,142.019113 L86.0350037,181.585213 C82.304441,183.755858 77.695559,183.755858 73.9649963,181.585213 L5.96499627,142.019113 C2.27192219,139.870281 -6.58216811e-15,135.919832 -7.10542736e-15,131.647096 L-7.10542736e-15,52.3529038 C-1.93625875e-15,48.0801678 2.27192219,44.1297186 5.96499627,41.9808872 L73.9649963,2.41478675 C77.695559,0.244142329 82.304441,0.244142329 86.0350037,2.41478675 Z" id="path-1"></path>
        <path d="M83.5204188,6.73646037 C81.3442572,5.47025112 78.6557428,5.47025112 76.4795812,6.73646037 L8.47958116,46.3025608 C6.32528795,47.5560458 5,49.8604745 5,52.3529038 L5,131.647096 C5,134.139525 6.32528795,136.443954 8.47958116,137.697439 L76.4795812,177.26354 C78.6557428,178.529749 81.3442572,178.529749 83.5204188,177.26354 L151.520419,137.697439 C153.674712,136.443954 155,134.139525 155,131.647096 L155,52.3529038 C155,49.8604745 153.674712,47.5560458 151.520419,46.3025608 L83.5204188,6.73646037 Z" id="path-2"></path>
        <radialGradient cx="50%" cy="50%" fx="50%" fy="50%" r="50.0127974%" gradientTransform="translate(0.500000,0.500000),scale(0.997700,1.000000),rotate(91.296187),translate(-0.500000,-0.500000)" id="radialGradient-4">
            <stop stop-color="#2D403A" stop-opacity="0" offset="0%"></stop>
            <stop stop-color="#2E403D" stop-opacity="0" offset="20.8724711%"></stop>
            <stop stop-color="#384456" offset="100%"></stop>
        </radialGradient>
        <circle id="path-5" cx="81" cy="89" r="28"></circle>
    </defs>
    <g id="勋章" stroke="none" stroke-width="1" fill="none" fill-rule="evenodd">
        <g id="战斗机飞行员" transform="translate(-108.000000, -286.000000)">
            <g id="contents" transform="translate(10.000000, 53.000000)">
                <g id="徽章" transform="translate(98.000000, 233.000000)">
                    <g id="Mask">
                        <use fill="#EEF6FF" fill-rule="evenodd" xlink:href="#path-1"></use>
                        <path stroke="#384456" stroke-width="4" d="M85.0291698,4.1434562 C81.9203675,2.33458585 78.0796325,2.33458585 74.9708302,4.1434562 L6.97083023,43.7095566 C3.8932685,45.5002495 2,48.7922905 2,52.3529038 L2,131.647096 C2,135.207709 3.8932685,138.499751 6.97083023,140.290443 L74.9708302,179.856544 C78.0796325,181.665414 81.9203675,181.665414 85.0291698,179.856544 L153.02917,140.290443 C156.106732,138.499751 158,135.207709 158,131.647096 L158,52.3529038 C158,48.7922905 156.106732,45.5002495 153.02917,43.7095566 L85.0291698,4.1434562 Z"></path>
                    </g>
                    <mask id="mask-3" fill="white">
                        <use xlink:href="#path-2"></use>
                    </mask>
                    <use id="Mask" fill="#384456" fill-rule="nonzero" opacity="0.0399370336" xlink:href="#path-2"></use>
                    <path d="M77.1991244,84.7384831 L51.283585,6.52512706 L64.8052741,3.15379132 L79.5904487,89.9453283 L79.7057515,90.1963874 L73.0321815,2.10526316 L86.9678185,2.10526316 L80.2942485,90.1963874 L80.4095513,89.9453283 L95.1947259,3.15379132 L108.716415,6.52512706 L82.8008756,84.7384831 L117.180867,9.87984055 L129.36925,16.6359715 L81.0041257,90.1744194 L81.4334533,89.6687521 L81.0852047,90.2333267 L136.07878,21.5107304 L146.270659,31.014812 L85.6998611,86.8447193 L152.076841,38.0283205 L159.461603,49.846411 L81.4868169,90.7280075 L81.2836759,90.9152485 L163.001067,57.3466518 L167.307416,70.6002303 L81.4655315,91.4749425 L81.7399335,91.5070204 L168.852461,78.7484972 L169.824561,92.6501877 L87.4308974,92.1723013 L169.249699,101.737023 L166.590654,115.416623 L81.7057885,92.1432873 L82.3193762,92.3953424 L81.6748191,92.2386013 L164.027841,123.304149 L158.138387,135.934125 L86.3235835,95.5802631 L153.262352,143.623425 L144.304698,154.298743 L81.3284547,92.773422 L81.0876039,92.6380842 L138.265299,159.982675 L126.991132,168.173837 L80.6114998,92.983994 L80.6657867,93.2548785 L119.719115,172.161214 L106.798217,177.381596 L81.7916715,98.8728899 L97.9784805,179.642856 L84.1467176,181.341183 L80.0501095,93.4190219 L80,94.0804678 L79.9498905,93.4190219 L75.8532824,181.341183 L62.0215195,179.642856 L78.2083285,98.8728899 L53.201783,177.381596 L40.2808853,172.161214 L79.3342133,93.2548785 L79.3885002,92.983994 L33.0088681,168.173837 L21.7347009,159.982675 L78.9123961,92.6380842 L78.6715453,92.773422 L15.6953024,154.298743 L6.73764752,143.623425 L73.6764165,95.5802631 L1.86161333,135.934125 L-4.02784138,123.304149 L78.3251809,92.2386013 L77.6806238,92.3953424 L78.2942115,92.1432873 L-6.5906538,115.416623 L-9.24969871,101.737023 L72.5691026,92.1723013 L-9.8245614,92.6501877 L-8.8524605,78.7484972 L78.2600665,91.5070204 L78.5344685,91.4749425 L-7.30741585,70.6002303 L-3.00106717,57.3466518 L78.7163241,90.9152485 L78.5131831,90.7280075 L0.538396565,49.846411 L7.92315911,38.0283205 L74.3001389,86.8447193 L13.7293407,31.014812 L23.9212204,21.5107304 L78.9147953,90.2333267 L78.5665467,89.6687521 L78.9958743,90.1744194 L30.6307504,16.6359715 L42.8191333,9.87984055 L77.1991244,84.7384831 Z" id="Combined-Shape" fill="url(#radialGradient-4)" opacity="0.1" mask="url(#mask-3)"></path>
                    <path d="M63,83 L60.1715729,80.1715729 C59.4214274,79.4214274 58.4040117,79 57.3431458,79 L22.1664926,79 C20.5740967,79 18.9945068,76.9847412 17.4688721,75.1630859 C15.9432373,73.3414307 15,71.5026855 15,70.5144958 C15,69.526306 15.6763916,69 17,69 L61,69 C61.5522847,69 62,69.4477153 62,70 L62,76 L63,83 Z M27.3334543,81 L58.1959187,81 C58.7482035,81 59.1959187,81.4477153 59.1959187,82 L59.1959193,88.0000161 C59.1959193,88.5523008 58.7482041,89.0000161 58.1959193,89.0000161 L32.3009122,88.9999952 C31.5277821,88.9999948 30.7845002,88.7015164 30.2260901,88.1668125 C29.5453125,87.5149361 28.8178088,86.6865862 28.0435791,85.6817627 C27.1796155,84.5604793 26.6172872,83.4045032 26.3565944,82.2138343 L26.3566391,82.2138246 C26.2385218,81.6743444 26.5801038,81.1412564 27.119584,81.023139 C27.1898346,81.0077579 27.2615395,81 27.3334543,81 Z M36.0522011,91 L56.1959664,91 C56.7482512,91 57.1959664,91.4477153 57.1959664,92 L57.1959674,96.0000164 C57.1959674,96.5523011 56.7482521,97.0000164 56.1959674,97.0000164 L40.9209341,96.9999957 C40.4040077,96.9999952 39.8958517,96.866424 39.4457401,96.6122342 C38.5946719,96.1316136 37.8197897,95.5483444 37.1210937,94.8624268 C36.5257483,94.2779695 35.896963,93.5158075 35.2347377,92.5759407 L35.2347703,92.5759177 C34.9166777,92.1244631 35.024789,91.5006219 35.4762436,91.1825293 C35.644816,91.063754 35.8459871,91 36.0522011,91 Z M99,83 L100,76 L100,70 C100,69.4477153 100.447715,69 101,69 L145,69 C146.323608,69 147,69.526306 147,70.5144958 C147,71.5026855 146.056763,73.3414307 144.531128,75.1630859 C143.005493,76.9847412 141.425903,79 139.833507,79 L104.656854,79 C103.595988,79 102.578573,79.4214274 101.828427,80.1715729 L99,83 Z M134.666546,81 C134.73846,81 134.810165,81.0077579 134.880416,81.023139 C135.419896,81.1412564 135.761478,81.6743444 135.643361,82.2138246 L135.643406,82.2138343 C135.382713,83.4045032 134.820385,84.5604793 133.956421,85.6817627 C133.182191,86.6865862 132.454688,87.5149361 131.77391,88.1668125 C131.2155,88.7015164 130.472218,88.9999948 129.699088,88.9999952 L103.804081,89.0000161 C103.251796,89.0000161 102.804081,88.5523008 102.804081,88.0000161 L102.804081,82 C102.804081,81.4477153 103.251797,81 103.804081,81 L134.666546,81 Z M125.947799,91 C126.154013,91 126.355184,91.063754 126.523756,91.1825293 C126.975211,91.5006219 127.083322,92.1244631 126.76523,92.5759177 L126.765262,92.5759407 C126.103037,93.5158075 125.474252,94.2779695 124.878906,94.8624268 C124.18021,95.5483444 123.405328,96.1316136 122.55426,96.6122342 C122.104148,96.866424 121.595992,96.9999952 121.079066,96.9999957 L105.804033,97.0000164 C105.251748,97.0000164 104.804033,96.5523011 104.804033,96.0000164 L104.804034,92 C104.804034,91.4477153 105.251749,91 105.804034,91 L125.947799,91 Z" id="Combined-Shape" fill="#384456" mask="url(#mask-3)"></path>
                    <g id="Oval-2" mask="url(#mask-3)">
                        <use fill="#384456" fill-rule="evenodd" xlink:href="#path-5"></use>
                        <circle stroke="#FFFFFF" stroke-width="4" cx="81" cy="89" r="26"></circle>
                        <circle stroke="#384456" stroke-width="3" cx="81" cy="89" r="26.5"></circle>
                        <use stroke="#E6EFF8" stroke-width="1" xlink:href="#path-5"></use>
                    </g>
                    <path d="M5.00000279,122 C29.7368503,118 54.7368531,116 80.000011,116 C105.263169,116 130.263166,118 155.000003,122 L155.000003,132.670395 C155.000003,134.80144 153.869649,136.772578 152.030381,137.84889 L83.0303892,178.226667 C81.158605,179.322008 78.8414169,179.322008 76.9696325,178.226668 L7.96962467,137.84889 C6.13035698,136.772578 5.00000279,134.80144 5.00000279,132.670395 L5.00000279,122 Z M65.2631489,160.350877 L67.3255533,161.435147 L66.9316691,159.138626 L68.6001893,157.512221 L66.2943511,157.177163 L65.2631489,155.087719 L64.2319467,157.177163 L61.9261085,157.512221 L63.5946287,159.138626 L63.2007445,161.435147 L65.2631489,160.350877 Z M94.7368449,160.350877 L96.7992493,161.435147 L96.4053651,159.138626 L98.0738853,157.512221 L95.7680471,157.177163 L94.7368449,155.087719 L93.7056427,157.177163 L91.3998045,157.512221 L93.0683247,159.138626 L92.6744405,161.435147 L94.7368449,160.350877 Z M80.0000028,162.105263 L83.2998498,163.840095 L82.6696351,160.165662 L85.3392674,157.563413 L81.6499263,157.027321 L80.0000028,153.684211 L78.3500793,157.027321 L74.6607381,157.563413 L77.3303705,160.165662 L76.7001558,163.840095 L80.0000028,162.105263 Z" id="Combined-Shape" fill="#384456" mask="url(#mask-3)"></path>
                    <path d="M42.9227663,127.05042 L45.413091,127.05042 L45.9010601,129.87395 L43.4275618,129.87395 L42.9227663,127.05042 Z M35.2330473,135.705882 L33.1297325,135.705882 L33.1297325,141.689076 L34.8292108,141.689076 C35.0479556,141.689076 35.2330473,141.487395 35.2330473,141.218487 L35.2330473,135.705882 Z M39.4060239,127.05042 L42.3506646,127.05042 L43.0742049,131.067227 L45.9010601,130.260504 L45.9010601,131.840336 L43.3434292,132.579832 L44.01649,136.277311 L45.9010601,134.630252 L45.9010601,136.714286 L44.3530204,138.07563 L44.9924281,141.605042 L45.9010601,141.605042 L45.9010601,142.882353 L42.199226,142.882353 L41.74491,140.344538 L39.1031466,142.647059 L39.1031466,140.596639 L41.4252061,138.546218 L40.5165741,133.386555 L38.8339223,133.87395 L38.8339223,132.277311 L40.2473498,131.87395 L39.4060239,127.05042 Z M32.5912839,127.084034 L35.7883224,127.084034 L35.7883224,129.92437 L38.4973919,129.92437 L38.4973919,131.201681 L35.7883224,131.201681 L35.7883224,134.411765 L38.3796063,134.411765 L38.3796063,141.369748 C38.3796063,142.243697 37.7401986,142.966387 36.9493522,142.966387 L30,142.966387 L30,134.411765 L32.5912839,134.411765 L32.5912839,127.084034 Z M47.8024567,127.789916 L51.9922598,127.789916 L54.9873801,132.159664 L50.797577,132.159664 L47.8024567,127.789916 Z M47.7519771,132.966387 L51.9417802,132.966387 L54.9873801,137.386555 L50.797577,137.386555 L47.7519771,132.966387 Z M46.8096921,139.403361 L46.8096921,138.12605 L55.9128386,138.12605 L55.9128386,127.067227 L59.9007235,127.067227 L59.9007235,138.12605 L62.7612317,138.12605 L62.7612317,139.403361 L59.9007235,139.403361 L59.9007235,143 L55.9128386,143 L55.9128386,139.403361 L46.8096921,139.403361 Z M65.1842504,142.94958 L63.6362107,142.94958 L63.8549554,131 L65.4198216,131 L65.1842504,142.94958 Z M68.9870436,131 L70.5350833,131 L70.7874811,142.94958 L69.2057883,142.94958 L68.9870436,131 Z M63.6362107,130.361345 L63.6362107,129.067227 L65.6385664,129.067227 L65.6385664,127 L68.7851254,127 L68.7851254,129.067227 L70.7874811,129.067227 L70.7874811,130.361345 L68.7851254,130.361345 L68.7851254,142.94958 L65.6385664,142.94958 L65.6385664,130.361345 L63.6362107,130.361345 Z M71.174491,142.983193 L71.174491,127.268908 L78.86421,127.268908 L78.86421,141.705882 L79.5709238,141.705882 L79.5709238,142.983193 L75.4316002,142.983193 L75.4316002,128.529412 L74.6071008,128.529412 L74.6071008,142.983193 L71.174491,142.983193 Z M92.5273431,130.848739 L95.9599529,130.848739 L94.5296988,134.764706 L91.097089,134.764706 L92.5273431,130.848739 Z M95.640249,140.747899 L92.1235066,140.747899 L91.0129564,135.957983 L94.5296988,135.957983 L95.640249,140.747899 Z M80.4795558,129.285714 L80.4795558,128.008403 L92.7460878,128.008403 L87.9337035,141.672269 L96.3974424,141.672269 L96.3974424,142.94958 L83.4915026,142.94958 L88.2870604,129.285714 L80.4795558,129.285714 Z M103.599192,127.336134 L112.618206,127.336134 L112.618206,128.613445 L103.599192,128.613445 L103.599192,127.336134 Z M103.010264,132.630252 L113.223961,132.630252 L113.223961,133.890756 L111.272085,133.890756 L111.272085,141.403361 C111.272085,142.277311 110.548545,143 109.673566,143 L105.635201,143 L105.635201,141.722689 L106.981323,141.722689 C107.250547,141.722689 107.452465,141.504202 107.452465,141.252101 L107.452465,133.890756 L103.010264,133.890756 L103.010264,132.630252 Z M98.298839,142.983193 L98.298839,135.773109 L97.2892479,135.773109 L98.3156655,131.638655 L97.2892479,131.638655 L98.5512367,127.067227 L102.286724,127.067227 L101.310786,130.731092 L102.286724,130.731092 L101.394918,134.394958 L101.96702,134.394958 L101.96702,142.983193 L98.298839,142.983193 Z M124.935218,130.798319 L124.935218,128.647059 L119.231028,128.647059 L119.231028,131.268908 L124.464075,131.268908 C124.716473,131.268908 124.935218,131.05042 124.935218,130.798319 Z M114.671042,139.268908 L114.671042,133.369748 L129.478378,133.369748 L129.478378,139.268908 L125.810197,139.268908 L125.810197,134.647059 L118.356049,134.647059 L118.356049,139.268908 L114.671042,139.268908 Z M119.971395,135.352941 L124.178025,135.352941 L124.178025,138.445378 L129.293286,141.789916 L130,141.789916 L130,142.932773 L124.514555,142.932773 L122.07471,141.184874 L119.634865,142.932773 L114.166246,142.932773 L114.166246,141.789916 L114.856133,141.789916 L119.971395,138.445378 L119.971395,135.352941 Z M115.226317,132.546218 L115.226317,127.369748 L128.923103,127.369748 L128.923103,130.630252 C128.923103,131.689076 128.06495,132.546218 127.00488,132.546218 L115.226317,132.546218 Z" id="战斗机飞行员" fill="#EEF6FF" mask="url(#mask-3)"></path>
                    <path d="M95.7980157,94.2859352 L96,91.962376 L82.5147928,81.0814446 C82.324825,74.6637237 82.0252382,72.1366012 81.0006815,72 C79.976089,72.1366012 79.675175,74.6624204 79.4865702,81.0814446 L66,91.9610727 L66.2019843,94.2846319 L79.3902591,88.854716 L79.4303977,98.0675134 L75.7026372,100.186171 L75.0739784,103.609091 L80.2663496,101.496986 C80.2475895,101.683536 80.3786946,103.349028 80.900353,103.976837 C80.9284392,104.009701 80.9645604,104.003114 80.9993185,103.984692 C81.0341124,104.003079 81.072888,104.009666 81.098284,103.976837 C81.6199423,103.348993 81.7510115,101.6835 81.7322874,101.496986 L86.9246585,103.609091 L86.2959998,100.186136 L82.5682392,98.0674781 L82.6083778,88.854716 L95.7980157,94.2860057 L95.7980157,94.2859352 Z" id="Shape" fill="#FFFFFF" fill-rule="nonzero" mask="url(#mask-3)"></path>
                </g>
            </g>
        </g>
    </g>
</svg>