<?xml version="1.0" encoding="UTF-8" standalone="no"?>
<svg width="160px" height="184px" viewBox="0 0 160 184" version="1.1" xmlns="http://www.w3.org/2000/svg" xmlns:xlink="http://www.w3.org/1999/xlink">
    <!-- Generator: Sketch 49 (51002) - http://www.bohemiancoding.com/sketch -->
    <title>徽章</title>
    <desc>Created with Sketch.</desc>
    <defs>
        <path d="M86.0350037,2.41478675 L154.035004,41.9808872 C157.728078,44.1297186 160,48.0801678 160,52.3529038 L160,131.647096 C160,135.919832 157.728078,139.870281 154.035004,142.019113 L86.0350037,181.585213 C82.304441,183.755858 77.695559,183.755858 73.9649963,181.585213 L5.96499627,142.019113 C2.27192219,139.870281 -6.58216811e-15,135.919832 -7.10542736e-15,131.647096 L-7.10542736e-15,52.3529038 C-1.93625875e-15,48.0801678 2.27192219,44.1297186 5.96499627,41.9808872 L73.9649963,2.41478675 C77.695559,0.244142329 82.304441,0.244142329 86.0350037,2.41478675 Z" id="path-1"></path>
        <path d="M83.5204188,6.73646037 C81.3442572,5.47025112 78.6557428,5.47025112 76.4795812,6.73646037 L8.47958116,46.3025608 C6.32528795,47.5560458 5,49.8604745 5,52.3529038 L5,131.647096 C5,134.139525 6.32528795,136.443954 8.47958116,137.697439 L76.4795812,177.26354 C78.6557428,178.529749 81.3442572,178.529749 83.5204188,177.26354 L151.520419,137.697439 C153.674712,136.443954 155,134.139525 155,131.647096 L155,52.3529038 C155,49.8604745 153.674712,47.5560458 151.520419,46.3025608 L83.5204188,6.73646037 Z" id="path-2"></path>
        <radialGradient cx="50%" cy="50%" fx="50%" fy="50%" r="50.0127974%" gradientTransform="translate(0.500000,0.500000),scale(0.997700,1.000000),rotate(91.296187),translate(-0.500000,-0.500000)" id="radialGradient-4">
            <stop stop-color="#2D403A" stop-opacity="0" offset="0%"></stop>
            <stop stop-color="#2E403D" stop-opacity="0" offset="20.8724711%"></stop>
            <stop stop-color="#384456" offset="100%"></stop>
        </radialGradient>
    </defs>
    <g id="勋章" stroke="none" stroke-width="1" fill="none" fill-rule="evenodd">
        <g id="开火车的老司机" transform="translate(-108.000000, -286.000000)">
            <g id="contents" transform="translate(10.000000, 53.000000)">
                <g id="徽章" transform="translate(98.000000, 233.000000)">
                    <g id="Mask">
                        <use fill="#EEF6FF" fill-rule="evenodd" xlink:href="#path-1"></use>
                        <path stroke="#384456" stroke-width="4" d="M85.0291698,4.1434562 C81.9203675,2.33458585 78.0796325,2.33458585 74.9708302,4.1434562 L6.97083023,43.7095566 C3.8932685,45.5002495 2,48.7922905 2,52.3529038 L2,131.647096 C2,135.207709 3.8932685,138.499751 6.97083023,140.290443 L74.9708302,179.856544 C78.0796325,181.665414 81.9203675,181.665414 85.0291698,179.856544 L153.02917,140.290443 C156.106732,138.499751 158,135.207709 158,131.647096 L158,52.3529038 C158,48.7922905 156.106732,45.5002495 153.02917,43.7095566 L85.0291698,4.1434562 Z"></path>
                    </g>
                    <mask id="mask-3" fill="white">
                        <use xlink:href="#path-2"></use>
                    </mask>
                    <use id="Mask" fill="#384456" fill-rule="nonzero" opacity="0.0399370336" xlink:href="#path-2"></use>
                    <path d="M77.1991244,84.7384831 L51.283585,6.52512706 L64.8052741,3.15379132 L79.5904487,89.9453283 L79.7057515,90.1963874 L73.0321815,2.10526316 L86.9678185,2.10526316 L80.2942485,90.1963874 L80.4095513,89.9453283 L95.1947259,3.15379132 L108.716415,6.52512706 L82.8008756,84.7384831 L117.180867,9.87984055 L129.36925,16.6359715 L81.0041257,90.1744194 L81.4334533,89.6687521 L81.0852047,90.2333267 L136.07878,21.5107304 L146.270659,31.014812 L85.6998611,86.8447193 L152.076841,38.0283205 L159.461603,49.846411 L81.4868169,90.7280075 L81.2836759,90.9152485 L163.001067,57.3466518 L167.307416,70.6002303 L81.4655315,91.4749425 L81.7399335,91.5070204 L168.852461,78.7484972 L169.824561,92.6501877 L87.4308974,92.1723013 L169.249699,101.737023 L166.590654,115.416623 L81.7057885,92.1432873 L82.3193762,92.3953424 L81.6748191,92.2386013 L164.027841,123.304149 L158.138387,135.934125 L86.3235835,95.5802631 L153.262352,143.623425 L144.304698,154.298743 L81.3284547,92.773422 L81.0876039,92.6380842 L138.265299,159.982675 L126.991132,168.173837 L80.6114998,92.983994 L80.6657867,93.2548785 L119.719115,172.161214 L106.798217,177.381596 L81.7916715,98.8728899 L97.9784805,179.642856 L84.1467176,181.341183 L80.0501095,93.4190219 L80,94.0804678 L79.9498905,93.4190219 L75.8532824,181.341183 L62.0215195,179.642856 L78.2083285,98.8728899 L53.201783,177.381596 L40.2808853,172.161214 L79.3342133,93.2548785 L79.3885002,92.983994 L33.0088681,168.173837 L21.7347009,159.982675 L78.9123961,92.6380842 L78.6715453,92.773422 L15.6953024,154.298743 L6.73764752,143.623425 L73.6764165,95.5802631 L1.86161333,135.934125 L-4.02784138,123.304149 L78.3251809,92.2386013 L77.6806238,92.3953424 L78.2942115,92.1432873 L-6.5906538,115.416623 L-9.24969871,101.737023 L72.5691026,92.1723013 L-9.8245614,92.6501877 L-8.8524605,78.7484972 L78.2600665,91.5070204 L78.5344685,91.4749425 L-7.30741585,70.6002303 L-3.00106717,57.3466518 L78.7163241,90.9152485 L78.5131831,90.7280075 L0.538396565,49.846411 L7.92315911,38.0283205 L74.3001389,86.8447193 L13.7293407,31.014812 L23.9212204,21.5107304 L78.9147953,90.2333267 L78.5665467,89.6687521 L78.9958743,90.1744194 L30.6307504,16.6359715 L42.8191333,9.87984055 L77.1991244,84.7384831 Z" id="Combined-Shape" fill="url(#radialGradient-4)" opacity="0.1" mask="url(#mask-3)"></path>
                    <path d="M5.00000279,122 C29.7368499,118 54.7368522,116 80.0000096,116 C105.263167,116 130.263164,118 155,122 L155,132.670395 C155,134.80144 153.869646,136.772578 152.030379,137.84889 L83.0303879,178.226667 C81.1586036,179.322008 78.8414155,179.322008 76.9696311,178.226668 L7.96962463,137.84889 C6.13035696,136.772578 5.00000279,134.80144 5.00000279,132.670395 L5.00000279,122 Z M65.2631461,158.350877 L67.3255505,159.435147 L66.9316663,157.138626 L68.6001865,155.512221 L66.2943483,155.177163 L65.2631461,153.087719 L64.2319439,155.177163 L61.9261057,155.512221 L63.5946259,157.138626 L63.2007417,159.435147 L65.2631461,158.350877 Z M94.7368421,158.350877 L96.7992465,159.435147 L96.4053623,157.138626 L98.0738825,155.512221 L95.7680443,155.177163 L94.7368421,153.087719 L93.7056399,155.177163 L91.3998017,155.512221 L93.0683219,157.138626 L92.6744377,159.435147 L94.7368421,158.350877 Z M80,160.105263 L83.299847,161.840095 L82.6696323,158.165662 L85.3392647,155.563413 L81.6499235,155.027321 L80,151.684211 L78.3500765,155.027321 L74.6607353,155.563413 L77.3303677,158.165662 L76.700153,161.840095 L80,160.105263 Z" id="Combined-Shape" fill="#384456" mask="url(#mask-3)"></path>
                    <path d="M30.9228724,127.191749 L31.3995964,133.820731 L34.7731258,133.820731 L34.3300217,127.191749 L30.9228724,127.191749 Z M30.8481478,141.451574 L27.2412128,141.451574 L27.7112284,135.089755 L25.7125976,135.089755 L25.6076006,133.820731 L27.7487905,133.820731 L27.2356834,127.191749 L25.4932143,127.191749 L25.3943598,125.922725 L39.328579,125.922725 L39.4018513,127.191749 L38.0172107,127.191749 L38.4239316,133.820731 L40.210824,133.820731 L40.287228,135.089755 L38.5038344,135.089755 L38.9175868,141.501667 L35.3109468,141.501667 L34.8601768,135.089755 L31.4163823,135.089755 L30.8481478,141.451574 Z M51.9441009,141.501667 L48.4527933,136.408873 L45.6286764,141.501667 L41.7481144,141.501667 L46.602294,132.868963 L46.249463,125.605469 L49.6644372,125.605469 L49.9807418,132.868963 L55.6572661,141.501667 L51.9441009,141.501667 Z M40.9450391,126.123097 L43.9990862,126.123097 L45.2105351,133.987708 L42.1612778,133.987708 L40.9450391,126.123097 Z M51.9925871,126.123097 L55.0622162,126.123097 L54.5585109,133.987708 L51.5246539,133.987708 L51.9925871,126.123097 Z M63.093145,125.722353 L62.4932111,127.97654 L70.7915384,127.97654 L70.8073088,129.245565 L62.1522146,129.245565 L60.9608095,133.837429 L62.5474059,133.837429 L62.461024,130.4311 L66.1306345,130.4311 L66.1981181,133.837429 L70.7268496,133.837429 L70.7435058,135.106453 L66.2236427,135.106453 L66.271207,137.444129 L71.0655743,137.444129 L71.0820284,138.713154 L66.2973236,138.713154 L66.355092,141.48497 L62.7483536,141.48497 L62.6744001,138.713154 L56.5903345,138.713154 L56.5446151,137.444129 L62.6409672,137.444129 L62.5800796,135.106453 L56.9686848,135.106453 L58.3675498,129.245565 L56.4131737,129.245565 L56.3704752,127.97654 L58.685926,127.97654 L59.2422,125.722353 L63.093145,125.722353 Z M75.5515304,139.698317 L75.5273201,135.557291 L74.6209086,135.557291 L74.654373,140.149155 L75.1424166,140.149155 C75.3559357,140.149155 75.5530145,139.948782 75.5515304,139.698317 Z M74.5777307,129.429239 L74.611828,134.288266 L75.5200245,134.288266 L75.4926261,129.429239 L74.5777307,129.429239 Z M78.6892122,132.117567 L81.4846366,132.117567 L82.2446113,138.011851 L79.4593401,138.011851 L78.6892122,132.117567 Z M79.2452872,125.655562 L82.0675057,125.655562 L81.8915729,126.807702 L86.4992408,126.807702 L86.3590765,139.548038 C86.3471652,140.583295 85.5458917,141.434877 84.5566209,141.434877 L81.6192478,141.434877 L81.624182,140.165852 L82.9205131,140.165852 C83.1797793,140.165852 83.3793846,139.96548 83.3810609,139.715015 L83.4559691,128.076727 L81.7002138,128.076727 L81.2406085,131.099008 L78.4563515,131.099008 L79.2452872,125.655562 Z M72.0611751,141.418179 L71.912387,128.160215 L72.8600681,128.160215 L73.3357799,125.655562 L76.2515526,125.655562 L75.7652541,128.160215 L78.1577603,128.160215 L78.1774382,140.149155 C78.17866,140.867155 77.6012423,141.418179 76.9467838,141.418179 L72.0611751,141.418179 Z M92.1863307,125.688957 L95.819178,125.688957 L95.7650287,127.943145 L99.8677732,127.943145 L99.8292608,129.212169 L95.7341751,129.212169 L95.6629503,132.100869 L101.959973,129.045192 L101.908111,130.58138 L98.4854354,132.234451 L101.882587,132.234451 L101.838803,133.503475 L95.8744576,133.503475 L93.4907752,134.672313 L93.4313263,137.343943 L100.297912,133.97101 L100.247879,135.507198 L93.3970557,138.863433 L93.3658895,140.232643 L101.539518,140.232643 L101.493552,141.501667 L89.7301225,141.501667 L89.8149763,136.475663 L87.1753466,137.778083 L87.194608,136.241896 L92.7766968,133.503475 L87.2284684,133.503475 L87.2439532,132.234451 L92.0617313,132.234451 L92.1199518,129.212169 L88.0248661,129.212169 L88.0413012,127.943145 L92.1440458,127.943145 L92.1863307,125.688957 Z M108.799998,137.611106 L108.998225,133.3198 L106.917054,133.3198 L106.71229,138.078641 L108.349611,138.078641 C108.579142,138.078641 108.787475,137.878269 108.799998,137.611106 Z M103.000024,130.347612 L103.044884,129.078588 L113.11396,129.078588 L113.050127,130.347612 L103.000024,130.347612 Z M103.266446,139.347666 L103.541604,132.050776 L112.500224,132.050776 L112.22361,137.444129 C112.168527,138.496084 111.344841,139.347666 110.382764,139.347666 L103.266446,139.347666 Z M103.717629,127.191749 L103.762653,125.922725 L117.431903,125.922725 L116.648127,139.53134 C116.585628,140.566597 115.771918,141.434877 114.813086,141.434877 L110.414636,141.434877 L110.478986,140.165852 L112.78188,140.165852 C113.010644,140.165852 113.236076,139.948782 113.250722,139.681619 L113.907962,127.191749 L103.717629,127.191749 Z M118.96694,141.451574 L117.56678,141.451574 L118.483956,129.579518 L119.925758,129.579518 L118.96694,141.451574 Z M123.212446,129.579518 L124.638744,129.579518 L124.034912,141.451574 L122.604313,141.451574 L123.212446,129.579518 Z M118.319116,128.945006 L118.393003,127.659284 L120.243115,127.659284 L120.36532,125.605469 L123.281303,125.605469 L123.150433,127.659284 L125.000544,127.659284 L124.914188,128.945006 L123.067568,128.945006 L122.223835,141.451574 L119.377857,141.451574 L120.165736,128.945006 L118.319116,128.945006 Z M124.38249,141.48497 L125.477808,125.872632 L132.601296,125.872632 L131.444818,140.215945 L132.085306,140.215945 L131.976424,141.48497 L128.232721,141.48497 L129.33057,127.124958 L128.568166,127.124958 L127.487024,141.48497 L124.38249,141.48497 Z" id="开火车的老司机" fill="#EEF6FF" mask="url(#mask-3)"></path>
                    <path d="M80,54 C76.0218281,54 72.7967258,57.2113547 72.7967258,61.1725689 C72.7967258,64.8403598 75.5470668,67.8560989 79.1159618,68.2799325 C79.4106412,68.3125351 79.6889495,68.3288364 80,68.3288364 C83.9781719,68.3288364 87.2032742,65.1174817 87.2032742,61.1562676 C87.2032742,57.2113547 83.9781719,54 80,54 Z M80,65.3130972 C78.6352217,65.3130972 77.3842185,64.633357 76.6263854,63.5383211 C76.5959083,63.4942831 76.5627109,63.4421413 76.5267932,63.3818955 L76.5268162,63.3818818 C76.3741509,63.1258122 76.4579767,62.7944671 76.7140464,62.6418019 C76.7361997,62.6285944 76.759271,62.6169916 76.7830832,62.6070826 L76.7850025,62.6062839 C77.0965153,62.4766545 77.455727,62.6010326 77.6203823,62.8955366 C78.5661549,63.7247816 79.3593608,64.1394042 80,64.1394042 C80.6598821,64.1394042 81.4028678,63.7138365 82.2289569,62.8627013 C82.2376844,62.8537092 82.2528403,62.8374922 82.2744244,62.8140504 L82.2744107,62.8140378 C82.5139158,62.5539199 82.8904662,62.4712371 83.2169168,62.6070826 L83.2169168,62.6070826 C83.4892803,62.720421 83.6181956,63.0330941 83.5048573,63.3054576 C83.4969687,63.3244147 83.4879935,63.3429012 83.4779766,63.3608251 C83.4093147,63.4836938 83.3653696,63.5587003 83.3461449,63.5858467 C82.5904085,64.6529902 81.3449242,65.3130972 80,65.3130972 Z M87.0886767,71.2793704 L76.7421555,82.6902754 C77.7735334,82.608769 78.8703956,82.5272625 80,82.5272625 C82.8649386,82.5272625 85.5006821,83 87.5634379,83 C90.2646658,83 92,82.1849354 92,78.4519393 C92,75.207982 90.0518417,72.7301855 87.0886767,71.2793704 Z M80,69.7633502 C82.0136426,69.7633502 83.9126876,70.0730748 85.5825375,70.64362 L74.4829468,82.8858909 C73.7626194,82.9510961 73.0750341,83 72.4365621,83 C69.7353342,83 68,82.2012366 68,78.4519393 C68,73.0562114 73.3697135,69.7633502 80,69.7633502 Z M76.5021405,59.9829492 C76.2248159,59.9829492 76,59.7590916 76,59.4829492 C76,59.2068068 76.2248159,58.9829492 76.5021405,58.9829492 C76.779465,58.9829492 77.0042809,59.2068068 77.0042809,59.4829492 C77.0042809,59.7590916 76.779465,59.9829492 76.5021405,59.9829492 Z M83.5,58.9829492 L83.5042809,58.9829492 C83.7804233,58.9829492 84.0042809,59.2068068 84.0042809,59.4829492 C84.0042809,59.7590916 83.7804233,59.9829492 83.5042809,59.9829492 L83.5,59.9829492 C83.2238576,59.9829492 83,59.7590916 83,59.4829492 C83,59.2068068 83.2238576,58.9829492 83.5,58.9829492 Z" id="Shape" fill="#384456" fill-rule="nonzero" mask="url(#mask-3)"></path>
                    <path d="M63.4685953,113.061468 L95.2584679,113.061468 C96.2200215,113.090191 96.992789,113.862958 97.0215111,114.824512 L97.0215111,116.477365 C96.992789,117.438918 96.2200215,118.211686 95.2584679,118.240408 L63.4685953,118.240408 C62.5070417,118.211686 61.7342742,117.438918 61.7055521,116.477365 L61.7055521,114.824512 C61.7342742,113.862958 62.5070417,113.090191 63.4685953,113.061468 Z M98.7845543,78.9025064 C95.741736,78.9025064 93.2750444,81.3691981 93.2750444,84.4120164 C93.2750444,87.4548347 95.741736,89.9215263 98.7845543,89.9215263 C101.827373,89.9215263 104.294064,87.4548347 104.294064,84.4120164 C104.294064,81.3691981 101.827373,78.9025064 98.7845543,78.9025064 Z M104.294064,55.487089 C104.308789,54.5372679 103.945538,53.6205109 103.284245,52.938552 C102.622951,52.2565931 101.717802,51.8653126 100.767978,51.8508123 L58.1794657,51.8508123 C57.2296411,51.8653126 56.3244924,52.2565931 55.6631989,52.938552 C55.0019054,53.6205109 54.6386542,54.5372679 54.6533793,55.487089 L54.6533793,69.86691 C54.6386542,70.8167311 55.0019054,71.733488 55.6631989,72.4154469 C56.3244924,73.0974058 57.2296411,73.4886864 58.1794657,73.5031866 L100.547598,73.5031866 C101.497422,73.4886864 102.402571,73.0974058 103.063864,72.4154469 C103.725158,71.733488 104.088409,70.8167311 104.073684,69.86691 L104.294064,55.487089 Z M60.2179844,89.701146 C63.2608027,89.701146 65.7274943,87.2344544 65.7274943,84.1916361 C65.7274943,81.1488178 63.2608027,78.6821262 60.2179844,78.6821261 C57.1751661,78.6821261 54.7084745,81.1488177 54.7084744,84.191636 C54.703217,87.1098981 56.9744042,89.5260548 59.8874138,89.701146 L60.2179844,89.701146 Z M113.329661,121.546114 C112.558334,121.998269 111.636749,122.118702 110.775133,121.879941 C109.913518,121.64118 109.185361,121.063589 108.756767,120.278926 L101.484214,107.496863 C100.879291,107.549042 100.270999,107.549042 99.6660759,107.496863 L59.3915579,107.496863 C58.7867351,107.55132 58.1782424,107.55132 57.5734196,107.496863 L50.3008664,120.278926 C49.8722729,121.063589 49.1441159,121.64118 48.2825003,121.879941 C47.4208847,122.118702 46.4992993,121.998269 45.7279731,121.546114 C44.9359364,121.095935 44.3565457,120.348018 44.1185881,119.46861 C43.8806306,118.589201 44.0038243,117.651173 44.4607858,116.86303 L51.2374831,104.962489 C47.4948103,102.267002 45.4110655,97.8286254 45.7279731,93.2272324 L48.2623477,54.6606625 C48.1395861,51.5119066 49.3250986,48.4526844 51.5375874,46.2088868 C53.7500761,43.9650893 56.792339,42.7367092 59.9425089,42.815216 L70.5758632,42.815216 C70.5758632,37.9467066 74.5225698,34 79.3910792,34 C84.2595885,34 88.2062952,37.9467066 88.2062952,42.815216 L100.547598,42.815216 C107.59977,42.815216 109.858669,47.9390603 110.29943,54.440282 L112.833805,93.006852 C113.150712,97.608245 111.066968,102.046622 107.324295,104.742108 L114.100992,116.64265 C115.030383,118.274534 114.493294,120.349652 112.8889,121.325733 L113.329661,121.546114 Z" id="Shape" fill="#384456" fill-rule="nonzero" mask="url(#mask-3)"></path>
                </g>
            </g>
        </g>
    </g>
</svg>